<svg width="30" height="31" viewBox="0 0 30 31" fill="none" xmlns="http://www.w3.org/2000/svg">
<path d="M19.1046 7.43162C20.2801 7.82169 21.3125 8.55298 22.0696 9.53189C22.8267 10.5108 23.274 11.6928 23.3543 12.9266M19.7392 2.50292C22.2086 3.10326 24.4006 4.52379 25.9551 6.53125C27.5097 8.53872 28.3345 11.0138 28.294 13.5501M25.7934 23.2239L25.3174 26.9204C25.2747 27.2638 25.1605 27.5944 24.9823 27.8911C24.804 28.1878 24.5657 28.444 24.2825 28.6434C23.9992 28.8427 23.6774 28.9808 23.3375 29.0488C22.9977 29.1168 22.6473 29.1132 22.3088 29.0383C18.563 28.1371 15.0808 26.3716 12.1419 23.8837C9.40262 21.6078 7.19869 18.7581 5.6866 15.5369C4.01411 12.0537 3.18694 8.22672 3.27211 4.3659C3.28514 4.02119 3.36993 3.683 3.52109 3.37285C3.67225 3.06271 3.88646 2.78742 4.1501 2.56449C4.41373 2.34157 4.72101 2.1759 5.05236 2.07804C5.38371 1.98018 5.73189 1.95227 6.07471 1.99608L9.77831 2.47296C10.3782 2.54422 10.9318 2.83076 11.3358 3.27918C11.7399 3.7276 11.9669 4.3073 11.9745 4.91022C11.9785 6.11332 12.1188 7.31217 12.3929 8.4839C12.5022 8.94632 12.4764 9.43025 12.3186 9.87836C12.1608 10.3265 11.8776 10.72 11.5025 11.0123L9.7332 12.3752C11.0934 15.6863 13.3236 18.57 16.1885 20.7221L17.9578 19.3591C18.3361 19.071 18.7893 18.8973 19.2636 18.8584C19.738 18.8196 20.2136 18.9173 20.6341 19.14C21.7004 19.7014 22.8269 20.1406 23.9921 20.4492C24.5809 20.6108 25.0898 20.9829 25.4219 21.4945C25.754 22.0061 25.8862 22.6216 25.7934 23.2239Z" stroke="#52B84A" stroke-width="2" stroke-linecap="round" stroke-linejoin="round"/>
</svg>
