<svg width="30" height="30" viewBox="0 0 30 30" fill="none" xmlns="http://www.w3.org/2000/svg">
<circle cx="15" cy="15" r="15" fill="#0093EA"/>
<path d="M8 12.331C8 11.5345 8.64564 10.8889 9.44208 10.8889V10.8889C9.9883 10.8889 10.4876 10.5803 10.7319 10.0917L11.3704 8.81481C11.6882 8.17924 12.3377 7.77777 13.0483 7.77777H16.9517C17.6623 7.77777 18.3118 8.17924 18.6296 8.81481L19.2681 10.0917C19.5124 10.5803 20.0117 10.8889 20.5579 10.8889V10.8889C21.3544 10.8889 22 11.5345 22 12.331V16.2222C22 17.1522 22 17.6172 21.8978 17.9987C21.6204 19.0339 20.8117 19.8426 19.7765 20.12C19.395 20.2222 18.93 20.2222 18 20.2222H12C11.07 20.2222 10.605 20.2222 10.2235 20.12C9.18827 19.8426 8.37962 19.0339 8.10222 17.9987C8 17.6172 8 17.1522 8 16.2222V12.331Z" stroke="white" stroke-width="1.5"/>
<circle cx="15" cy="14.7778" r="2.36111" stroke="white" stroke-width="1.5"/>
</svg>
