<svg width="20" height="18" viewBox="0 0 20 18" fill="none" xmlns="http://www.w3.org/2000/svg">
<path d="M17.6889 1.13625C17.4667 0.4725 16.8444 0 16.1111 0H3.88889C3.15556 0 2.54444 0.4725 2.31111 1.13625L0 7.875V16.875C0 17.4937 0.5 18 1.11111 18H2.22222C2.83333 18 3.33333 17.4937 3.33333 16.875V15.75H16.6667V16.875C16.6667 17.4937 17.1667 18 17.7778 18H18.8889C19.5 18 20 17.4937 20 16.875V7.875L17.6889 1.13625ZM4.27778 2.25H15.7111L16.9111 5.74875H3.07778L4.27778 2.25ZM17.7778 13.5H2.22222V7.875H17.7778V13.5Z" fill="#6B7186"/>
<path d="M5 12C6.10457 12 7 11.3284 7 10.5C7 9.67157 6.10457 9 5 9C3.89543 9 3 9.67157 3 10.5C3 11.3284 3.89543 12 5 12Z" fill="#81B622"/>
<path d="M15 12C16.1046 12 17 11.3284 17 10.5C17 9.67157 16.1046 9 15 9C13.8954 9 13 9.67157 13 10.5C13 11.3284 13.8954 12 15 12Z" fill="#81B622"/>
</svg>
