<svg width="25" height="21" viewBox="0 0 25 21" fill="none" xmlns="http://www.w3.org/2000/svg">
<path d="M23.0351 7.28333H20.842C19.7587 7.28333 18.8744 6.51761 18.8744 5.57381V2.7984H25.0001V5.57637C25.0001 6.51761 24.1187 7.28333 23.0354 7.28333H23.0351ZM20.0456 3.81597V5.57637C20.0456 5.95796 20.4028 6.26832 20.842 6.26832H23.0351C23.4743 6.26832 23.8316 5.95796 23.8316 5.57637V3.81597H20.0456Z" fill="white"/>
<path d="M20.0367 1.36603H21.208V3.30706H20.0367V1.36603Z" fill="white"/>
<path d="M22.6661 1.36603H23.8374V3.30706H22.6661V1.36603Z" fill="white"/>
<path d="M15.0354 18.4308H1.77161V1.42967C1.77161 0.641056 2.50946 0 3.41715 0H13.3871C14.2948 0 15.0326 0.641056 15.0326 1.42967V18.4308H15.0354ZM3.11649 17.4133H13.8671L13.6792 9.32855L13.6818 1.70715C13.6818 1.48074 13.4681 1.29503 13.2075 1.29503L3.77615 1.2948C3.51555 1.2948 3.3018 1.4805 3.3018 1.70691V9.75136L3.11649 17.4133Z" fill="white"/>
<path d="M16.8098 21.0001H0V18.8429C0 18.0543 0.737853 17.4132 1.64554 17.4132H15.1642C16.0719 17.4132 16.8097 18.0543 16.8097 18.8429L16.8098 21.0001ZM1.17095 19.9825H15.6416V18.8429C15.6416 18.6165 15.4278 18.4308 15.1672 18.4308H1.64536C1.38476 18.4308 1.17101 18.6165 1.17101 18.8429L1.17095 19.9825Z" fill="white"/>
<path d="M5.12711 7.42048C4.90751 7.42048 4.69962 7.34671 4.54442 7.20933C4.38631 7.07451 4.30139 6.89134 4.30139 6.70052V3.70634C4.30139 3.30949 4.67325 2.98639 5.13005 2.98639H11.6771C12.1339 2.98639 12.5057 3.30947 12.5057 3.70634V6.70308C12.5057 7.09993 12.1339 7.42303 11.6771 7.42303H5.12684C5.12977 7.42049 5.12977 7.42049 5.12684 7.42049L5.12711 7.42048ZM5.47262 4.00401V6.40291H11.3343V4.00401H5.47262Z" fill="white"/>
<path d="M19.6882 17.1535C18.1246 17.1535 16.8509 16.0469 16.8509 14.6884V10.1831C16.8509 9.944 16.6255 9.74812 16.3502 9.74812H14.45V8.73055H16.3502C17.2726 8.73055 18.0222 9.3818 18.0222 10.1832V14.691C18.0222 15.4898 18.7688 16.1384 19.6882 16.1384C20.6076 16.1384 21.3543 15.4898 21.3543 14.691V6.77417H22.5255V14.6882C22.5226 16.0492 21.2518 17.1532 19.6882 17.1532L19.6882 17.1535Z" fill="white"/>
<path d="M6.94225 16.4032L5.58472 15.3721L7.91168 13.3207L6.60407 12.0832L9.86979 9.25183L11.1694 10.4487L8.84247 12.0899L10.2626 13.5281L6.94225 16.4032Z" fill="white"/>
</svg>
