<svg width="30" height="25" viewBox="0 0 30 25" fill="none" xmlns="http://www.w3.org/2000/svg">
<path d="M27.0562 8.48272H24.5122C23.2555 8.48272 22.2297 7.59091 22.2297 6.49171V3.25928H29.3355V6.49469C29.3355 7.59091 28.3131 8.48272 27.0564 8.48272H27.0562ZM23.5883 4.4444V6.49469C23.5883 6.93911 24.0027 7.30057 24.5122 7.30057H27.0562C27.5657 7.30057 27.9801 6.93911 27.9801 6.49469V4.4444H23.5883Z" fill="#0093EA"/>
<path d="M23.5781 1.59106H24.9367V3.85172H23.5781V1.59106Z" fill="#0093EA"/>
<path d="M26.6282 1.59106H27.9868V3.85172H26.6282V1.59106Z" fill="#0093EA"/>
<path d="M17.7766 21.4658H2.39062V1.66508C2.39062 0.746617 3.24653 0 4.29945 0H15.8646C16.9175 0 17.7734 0.746617 17.7734 1.66508V21.4658H17.7766ZM3.95068 20.2807H16.4214L16.2034 10.8646L16.2064 1.98826C16.2064 1.72457 15.9585 1.50828 15.6562 1.50828L4.71589 1.50801C4.4136 1.50801 4.16565 1.72429 4.16565 1.98799V11.3571L3.95068 20.2807Z" fill="#0093EA"/>
<path d="M19.8348 24.4581H0.335449V21.9456C0.335449 21.0271 1.19136 20.2805 2.24427 20.2805H17.9259C18.9788 20.2805 19.8347 21.0271 19.8347 21.9456L19.8348 24.4581ZM1.69375 23.2729H18.4796V21.9456C18.4796 21.6819 18.2317 21.4656 17.9294 21.4656H2.24406C1.94177 21.4656 1.69382 21.6819 1.69382 21.9456L1.69375 23.2729Z" fill="#0093EA"/>
<path d="M6.28303 8.64226C6.02829 8.64226 5.78714 8.55634 5.60711 8.39635C5.4237 8.23932 5.3252 8.026 5.3252 7.80376V4.31653C5.3252 3.85433 5.75655 3.47803 6.28644 3.47803H13.881C14.4108 3.47803 14.8422 3.8543 14.8422 4.31653V7.80674C14.8422 8.26893 14.4109 8.64524 13.881 8.64524H6.28271C6.28611 8.64227 6.28611 8.64227 6.28271 8.64227L6.28303 8.64226ZM6.68382 4.66321V7.45713H13.4834V4.66321H6.68382Z" fill="#0093EA"/>
<path d="M23.1738 19.9783C21.36 19.9783 19.8826 18.6895 19.8826 17.1074V11.8602C19.8826 11.5817 19.621 11.3536 19.3017 11.3536H17.0974V10.1684H19.3017C20.3717 10.1684 21.2412 10.9269 21.2412 11.8602V17.1103C21.2412 18.0407 22.1073 18.7962 23.1738 18.7962C24.2403 18.7962 25.1064 18.0407 25.1064 17.1103V7.88989H26.465V17.1071C26.4616 18.6922 24.9875 19.978 23.1738 19.978L23.1738 19.9783Z" fill="#0093EA"/>
<path d="M8.38846 19.1041L6.81372 17.9032L9.513 15.514L7.99617 14.0728L11.7844 10.7751L13.292 12.1691L10.5927 14.0805L12.2401 15.7555L8.38846 19.1041Z" fill="#0093EA"/>
</svg>
