<svg width="29" height="29" viewBox="0 0 29 29" fill="none" xmlns="http://www.w3.org/2000/svg">
<path d="M28.2483 12.6426L16.3689 0.747575C15.38 -0.24258 13.6396 -0.255782 12.6376 0.747575L0.771308 12.6294C-0.257103 13.6592 -0.257103 15.3227 0.771308 16.3524L12.6376 28.2343C13.1518 28.7492 13.8242 29 14.4966 29C15.1691 29 15.8415 28.7492 16.3557 28.2343L28.2088 16.3656C29.2504 15.3623 29.2636 13.6988 28.2483 12.6426ZM14.5098 26.3728L2.64354 14.4909L14.5098 2.60907L26.3761 14.4909L14.5098 26.3728ZM9.22274 13.1839V18.4648H11.8597V14.5041H17.1336V17.8046L21.7483 13.1839L17.1336 8.5632V11.8637H10.5412C9.81605 11.8637 9.22274 12.4578 9.22274 13.1839Z" fill="#0093EA"/>
</svg>
