<svg width="31" height="31" viewBox="0 0 31 31" fill="none" xmlns="http://www.w3.org/2000/svg">
<path d="M30.1965 13.5145L17.4978 0.799132C16.4407 -0.259309 14.5803 -0.273422 13.5091 0.799132L0.824502 13.5004C-0.274834 14.6012 -0.274834 16.3794 0.824502 17.4802L13.5091 30.1815C14.0588 30.7319 14.7776 31 15.4964 31C16.2152 31 16.934 30.7319 17.4837 30.1815L30.1542 17.4943C31.2677 16.4217 31.2817 14.6436 30.1965 13.5145ZM15.5105 28.1916L2.82586 15.4903L15.5105 2.789L28.1952 15.4903L15.5105 28.1916ZM9.85879 14.0932V19.7382H12.6776V15.5044H18.3152V19.0326L23.2481 14.0932L18.3152 9.15377V12.6819H11.2682C10.493 12.6819 9.85879 13.317 9.85879 14.0932Z" fill="#0093EA"/>
</svg>
