<svg width="21" height="21" viewBox="0 0 21 21" fill="none" xmlns="http://www.w3.org/2000/svg">
<path d="M9.49845 3.00311H2.88854C2.38767 3.00311 1.90731 3.20208 1.55314 3.55625C1.19897 3.91042 1 4.39078 1 4.89166V18.1115C1 18.6123 1.19897 19.0927 1.55314 19.4469C1.90731 19.801 2.38767 20 2.88854 20H16.1084C16.6092 20 17.0896 19.801 17.4438 19.4469C17.7979 19.0927 17.9969 18.6123 17.9969 18.1115V11.5016" stroke="#6B7186" stroke-width="2" stroke-linecap="round" stroke-linejoin="round"/>
<path d="M16.5805 1.58669C16.9561 1.21104 17.4656 1 17.9969 1C18.5281 1 19.0376 1.21104 19.4133 1.58669C19.7889 1.96235 20 2.47185 20 3.0031C20 3.53436 19.7889 4.04385 19.4133 4.41951L10.4427 13.3901L6.66562 14.3344L7.60989 10.5573L16.5805 1.58669Z" stroke="#81B622" stroke-width="2" stroke-linecap="round" stroke-linejoin="round"/>
</svg>
