<svg width="30" height="26" viewBox="0 0 30 26" fill="none" xmlns="http://www.w3.org/2000/svg">
<g clip-path="url(#clip0_531_142)">
<rect width="30" height="26" fill="white"/>
<path d="M26.4718 3.12177C25.7974 2.44911 24.9967 1.9155 24.1154 1.55144C23.2341 1.18738 22.2895 1 21.3355 1C20.3816 1 19.437 1.18738 18.5557 1.55144C17.6744 1.9155 16.8736 2.44911 16.1992 3.12177L14.7996 4.51714L13.4 3.12177C12.0378 1.76368 10.1903 1.0007 8.26378 1.0007C6.33731 1.0007 4.48973 1.76368 3.12751 3.12177C1.76529 4.47987 1 6.32185 1 8.24249C1 10.1631 1.76529 12.0051 3.12751 13.3632L4.52711 14.7586L14.7996 25L25.0722 14.7586L26.4718 13.3632C27.1465 12.6909 27.6817 11.8926 28.0469 11.0139C28.412 10.1353 28.6 9.19356 28.6 8.24249C28.6 7.29142 28.412 6.34967 28.0469 5.47104C27.6817 4.59241 27.1465 3.79412 26.4718 3.12177Z" fill="#FF4141" stroke="#FF4141" stroke-width="2" stroke-linecap="round" stroke-linejoin="round"/>
<path d="M19.6 5.80038C21.6 5.60038 25.24 6.28038 23.8 10.6003" stroke="#FF4141" stroke-width="2" stroke-linecap="round"/>
</g>
<defs>
<clipPath id="clip0_531_142">
<rect width="30" height="26" fill="white"/>
</clipPath>
</defs>
</svg>
