<svg width="25" height="22" viewBox="0 0 25 22" fill="none" xmlns="http://www.w3.org/2000/svg">
<path d="M22.2265 2.76815C21.6645 2.20759 20.9972 1.76292 20.2628 1.45954C19.5284 1.15615 18.7412 1 17.9463 1C17.1513 1 16.3641 1.15615 15.6297 1.45954C14.8953 1.76292 14.228 2.20759 13.666 2.76815L12.4997 3.93095L11.3334 2.76815C10.1982 1.6364 8.65854 1.00059 7.05315 1.00059C5.44775 1.00059 3.90811 1.6364 2.77293 2.76815C1.63774 3.89989 1 5.43487 1 7.03541C1 8.63594 1.63774 10.1709 2.77293 11.3027L3.93926 12.4655L12.4997 21L21.0602 12.4655L22.2265 11.3027C22.7887 10.7424 23.2348 10.0771 23.5391 9.34495C23.8434 8.61276 24 7.82796 24 7.03541C24 6.24285 23.8434 5.45806 23.5391 4.72587C23.2348 3.99368 22.7887 3.32844 22.2265 2.76815Z" stroke="#565F7D" stroke-width="2" stroke-linecap="round" stroke-linejoin="round"/>
<path d="M16.5 5.00007C18.1667 4.83341 21.2 5.40007 20 9.00007" stroke="#81B622" stroke-width="2" stroke-linecap="round"/>
</svg>
