<svg width="19" height="23" viewBox="0 0 19 23" fill="none" xmlns="http://www.w3.org/2000/svg">
<path d="M18 9.59091C18 16.2727 9.5 22 9.5 22C9.5 22 1 16.2727 1 9.59091C1 7.31246 1.89553 5.12733 3.48959 3.51622C5.08365 1.90511 7.24566 1 9.5 1C11.7543 1 13.9163 1.90511 15.5104 3.51622C17.1045 5.12733 18 7.31246 18 9.59091Z" stroke="#6B7186" stroke-width="1.75" stroke-linecap="round" stroke-linejoin="round"/>
<path d="M9.5 12C10.8807 12 12 10.8807 12 9.5C12 8.11929 10.8807 7 9.5 7C8.11929 7 7 8.11929 7 9.5C7 10.8807 8.11929 12 9.5 12Z" stroke="#81B622" stroke-width="1.75" stroke-linecap="round" stroke-linejoin="round"/>
</svg>
