<svg width="19" height="17" viewBox="0 0 19 17" fill="none" xmlns="http://www.w3.org/2000/svg">
<path d="M16.8044 1.07313C16.5933 0.44625 16.0022 0 15.3056 0H3.69444C2.99778 0 2.41722 0.44625 2.19556 1.07313L0 7.4375V15.9375C0 16.5219 0.475 17 1.05556 17H1.16111C1.74167 17 2.21667 16.5219 2.21667 15.9375L2.19556 14.5775H16.625L16.7833 15.9375C16.7833 16.5219 17.2583 17 17.8389 17H17.9444C18.525 17 19 16.5219 19 15.9375V7.4375L16.8044 1.07313ZM3.8 1.48753H15.2L16.625 5.69503H2.375L3.8 1.48753ZM17.1 12.7075H1.9V7.4375H17.1V12.7075Z" fill="#363D52"/>
<path d="M5.5 11.5C6.32843 11.5 7 10.8284 7 10C7 9.17157 6.32843 8.5 5.5 8.5C4.67157 8.5 4 9.17157 4 10C4 10.8284 4.67157 11.5 5.5 11.5Z" fill="#363D52"/>
<path d="M13.5 11.5C14.3284 11.5 15 10.8284 15 10C15 9.17157 14.3284 8.5 13.5 8.5C12.6716 8.5 12 9.17157 12 10C12 10.8284 12.6716 11.5 13.5 11.5Z" fill="#363D52"/>
</svg>
