<svg width="17" height="21" viewBox="0 0 17 21" fill="none" xmlns="http://www.w3.org/2000/svg">
<path d="M16 8.80809C16 14.5354 8.5 19.4445 8.5 19.4445C8.5 19.4445 1 14.5354 1 8.80809C1 6.85514 1.79018 4.98217 3.1967 3.60122C4.60322 2.22027 6.51088 1.44446 8.5 1.44446C10.4891 1.44446 12.3968 2.22027 13.8033 3.60122C15.2098 4.98217 16 6.85514 16 8.80809Z" stroke="#363D52" stroke-width="1.75" stroke-linecap="round" stroke-linejoin="round"/>
<path d="M8.5 11.2626C9.88071 11.2626 11 10.1637 11 8.80806C11 7.45245 9.88071 6.35352 8.5 6.35352C7.11929 6.35352 6 7.45245 6 8.80806C6 10.1637 7.11929 11.2626 8.5 11.2626Z" stroke="#363D52" stroke-width="1.75" stroke-linecap="round" stroke-linejoin="round"/>
</svg>
