<svg width="17" height="23" viewBox="0 0 17 23" fill="none" xmlns="http://www.w3.org/2000/svg">
<path d="M8.49982 13.8001C6.24634 13.8027 4.08581 14.6919 2.49246 16.273C0.898883 17.8541 0.00265804 19.9977 9.70215e-05 22.2333C-7.54501e-05 22.4366 0.0813342 22.6317 0.226222 22.7756C0.371282 22.9194 0.567911 23.0002 0.772824 23H16.2273C16.4322 23.0002 16.6288 22.9194 16.7739 22.7756C16.9188 22.6317 17.0002 22.4366 17 22.2333C16.9974 19.9975 16.1012 17.8539 14.5076 16.273C12.9141 14.6919 10.7535 13.8027 8.50027 13.8001H8.49982ZM1.58815 21.4669C1.84395 19.198 3.21414 17.2014 5.24825 16.1339C7.2825 15.0665 9.7168 15.0665 11.751 16.1339C13.7851 17.2012 15.1553 19.1979 15.4111 21.4669H1.58815ZM13.1362 7.66674C13.1362 6.44672 12.6477 5.27669 11.7782 4.41403C10.9087 3.55136 9.72947 3.0667 8.49982 3.0667C7.27018 3.0667 6.09092 3.55132 5.22145 4.41403C4.35198 5.27673 3.86349 6.44672 3.86349 7.66674C3.86349 8.88676 4.35194 10.0568 5.22145 10.9195C6.09096 11.7821 7.27018 12.2668 8.49982 12.2668C9.72911 12.2654 10.9075 11.7804 11.7767 10.9179C12.646 10.0556 13.1348 8.88641 13.1362 7.66674ZM5.40893 7.66674C5.40893 6.85336 5.73458 6.07333 6.3143 5.49832C6.89384 4.92314 7.68003 4.60004 8.49982 4.60004C9.31962 4.60004 10.1058 4.92314 10.6853 5.49832C11.2651 6.07333 11.5907 6.85336 11.5907 7.66674C11.5907 8.48011 11.2651 9.26015 10.6853 9.83515C10.1058 10.4103 9.31962 10.7334 8.49982 10.7334C7.68034 10.7326 6.89468 10.4093 6.31514 9.83432C5.7356 9.25933 5.40977 8.47981 5.40893 7.66674ZM16.9998 6.90006V8.43341C16.9987 8.7127 16.9206 8.98634 16.7738 9.22471C16.627 9.46309 16.4173 9.65699 16.1674 9.78552C16.0277 10.6879 15.5677 11.5112 14.8701 12.1067C14.1726 12.7023 13.2836 13.0309 12.3634 13.0334C12.0873 13.0334 11.8322 12.8873 11.6942 12.6501C11.5562 12.4129 11.5562 12.1206 11.6942 11.8834C11.8322 11.6462 12.0873 11.5001 12.3634 11.5001C12.8866 11.4989 13.3938 11.3223 13.803 10.9988C14.2121 10.6754 14.4991 10.2241 14.6171 9.71858C14.1764 9.43723 13.9098 8.95326 13.9089 8.43337V6.90002C13.9094 6.48331 14.0816 6.08476 14.3857 5.79724C13.8503 4.1357 12.627 2.7793 11.0221 2.06722C9.4171 1.3553 7.58257 1.3553 5.97774 2.06722C4.37277 2.7793 3.14953 4.1357 2.61414 5.79724C2.91823 6.08474 3.09036 6.4833 3.09089 6.90002V8.43337C3.09089 8.98117 2.79629 9.48739 2.31817 9.76134C1.84005 10.0351 1.25084 10.0351 0.772722 9.76134C0.294606 9.48735 0 8.98112 0 8.43337V6.90002C0.00120739 6.57025 0.1097 6.24953 0.309433 5.98584C0.509167 5.7223 0.789448 5.5296 1.10838 5.43686C1.58994 3.86399 2.56843 2.48635 3.89933 1.5075C5.23039 0.528435 6.84327 0 8.49989 0C10.1565 0 11.7695 0.528435 13.1005 1.5075C14.4314 2.48639 15.4098 3.86399 15.8914 5.43686C16.2103 5.52961 16.4906 5.7223 16.6904 5.98584C16.8901 6.24955 16.9986 6.57026 16.9998 6.90002L16.9998 6.90006Z" fill="#363D52"/>
</svg>
