<svg width="23" height="17" viewBox="0 0 23 17" fill="none" xmlns="http://www.w3.org/2000/svg">
<path d="M11.6012 10.5255C12.7612 10.5255 13.7016 9.58508 13.7016 8.42503C13.7016 7.26499 12.7612 6.32458 11.6012 6.32458C10.4411 6.32458 9.50073 7.26499 9.50073 8.42503C9.50073 9.58508 10.4411 10.5255 11.6012 10.5255Z" stroke="#363D52" stroke-width="1.65" stroke-linecap="round" stroke-linejoin="round"/>
<path d="M16.0541 3.97226C16.64 4.55748 17.1048 5.25245 17.4219 6.01742C17.739 6.78239 17.9022 7.60237 17.9022 8.43046C17.9022 9.25855 17.739 10.0785 17.4219 10.8435C17.1048 11.6085 16.64 12.3034 16.0541 12.8887M7.14825 12.8782C6.56237 12.2929 6.09759 11.598 5.78048 10.833C5.46337 10.068 5.30014 9.24805 5.30014 8.41996C5.30014 7.59186 5.46337 6.77189 5.78048 6.00692C6.09759 5.24195 6.56237 4.54698 7.14825 3.96176M19.0263 1.00012C20.9951 2.96958 22.1012 5.64039 22.1012 8.42521C22.1012 11.21 20.9951 13.8808 19.0263 15.8503M4.17611 15.8503C2.20724 13.8808 1.1012 11.21 1.1012 8.42521C1.1012 5.64039 2.20724 2.96958 4.17611 1.00012" stroke="#363D52" stroke-width="1.65" stroke-linecap="round" stroke-linejoin="round"/>
</svg>
