<svg width="19" height="18" viewBox="0 0 19 18" fill="none" xmlns="http://www.w3.org/2000/svg">
<path d="M12.9 9.45001H17.15C17.6194 9.45001 18 9.83057 18 10.3V12.85C18 13.3194 17.6194 13.7 17.15 13.7H12.9C12.4305 13.7 12.05 13.3194 12.05 12.85V10.3C12.05 9.83057 12.4305 9.45001 12.9 9.45001Z" stroke="#363D52" stroke-width="1.5"/>
<path d="M1 3.32501V13.7C1 15.3028 1 16.1042 1.49792 16.6021C1.99584 17.1 2.79722 17.1 4.4 17.1H16.3C17.1014 17.1 17.5021 17.1 17.751 16.851C18 16.6021 18 16.2014 18 15.4V13.3V9.5V7.4C18 6.59862 18 6.19792 17.751 5.94896C17.5021 5.70001 17.1014 5.70001 16.3 5.70001H12.9841M1 3.32501C1 4.63668 2.06332 5.70001 3.375 5.70001H12.9841M1 3.32501C1 2.01333 2.06332 0.950012 3.375 0.950012H16.377C16.6136 0.950012 16.732 0.950012 16.8225 0.995827C16.9032 1.03671 16.9688 1.10231 17.0097 1.18307C17.0555 1.27357 17.0555 1.39191 17.0555 1.62858C17.0555 3.04863 17.0555 3.75865 16.7806 4.30168C16.5354 4.78624 16.1418 5.17983 15.6572 5.42512C15.1142 5.70001 14.4042 5.70001 12.9841 5.70001" stroke="#363D52" stroke-width="1.5"/>
</svg>
