<svg width="25" height="25" viewBox="0 0 25 25" fill="none" xmlns="http://www.w3.org/2000/svg">
<path d="M23.0351 8.93684H20.842C19.7587 8.93684 18.8744 8.08259 18.8744 7.02969V3.93341H25.0001V7.03254C25.0001 8.08259 24.1187 8.93684 23.0354 8.93684H23.0351ZM20.0456 5.06862V7.03254C20.0456 7.45824 20.4028 7.80448 20.842 7.80448H23.0351C23.4743 7.80448 23.8316 7.45824 23.8316 7.03254V5.06862H20.0456Z" fill="#363D52"/>
<path d="M20.0367 2.33533H21.208V4.50076H20.0367V2.33533Z" fill="#363D52"/>
<path d="M22.6661 2.33533H23.8374V4.50076H22.6661V2.33533Z" fill="#363D52"/>
<path d="M15.0355 21.373H1.77167V2.40635C1.77167 1.52657 2.50952 0.811401 3.41721 0.811401H13.3871C14.2948 0.811401 15.0327 1.52657 15.0327 2.40635V21.373H15.0355ZM3.11655 20.2378H13.8672L13.6792 11.2184L13.6819 2.71591C13.6819 2.46333 13.4681 2.25615 13.2075 2.25615L3.77621 2.25589C3.51561 2.25589 3.30186 2.46307 3.30186 2.71565V11.6901L3.11655 20.2378Z" fill="#363D52"/>
<path d="M16.8098 24.2392H0V21.8326C0 20.9528 0.737853 20.2376 1.64554 20.2376H15.1642C16.0719 20.2376 16.8097 20.9528 16.8097 21.8326L16.8098 24.2392ZM1.17095 23.104H15.6416V21.8326C15.6416 21.58 15.4278 21.3728 15.1672 21.3728H1.64536C1.38476 21.3728 1.17101 21.58 1.17101 21.8326L1.17095 23.104Z" fill="#363D52"/>
<path d="M5.12711 9.08959C4.90751 9.08959 4.69962 9.00729 4.54442 8.85404C4.38631 8.70362 4.30139 8.49929 4.30139 8.28641V4.94607C4.30139 4.50334 4.67325 4.14288 5.13005 4.14288H11.6771C12.1339 4.14288 12.5057 4.50331 12.5057 4.94607V8.28926C12.5057 8.73199 12.1339 9.09244 11.6771 9.09244H5.12684C5.12977 9.0896 5.12977 9.0896 5.12684 9.0896L5.12711 9.08959ZM5.47262 5.27815V7.95439H11.3343V5.27815H5.47262Z" fill="#363D52"/>
<path d="M19.6882 19.948C18.1246 19.948 16.8509 18.7134 16.8509 17.1979V12.1718C16.8509 11.905 16.6255 11.6865 16.3502 11.6865H14.45V10.5513H16.3502C17.2726 10.5513 18.0222 11.2778 18.0222 12.1718V17.2008C18.0222 18.0919 18.7688 18.8156 19.6882 18.8156C20.6076 18.8156 21.3543 18.0919 21.3543 17.2008V8.36871H22.5255V17.1976C22.5226 18.716 21.2518 19.9477 19.6882 19.9477L19.6882 19.948Z" fill="#363D52"/>
<path d="M7.37667 19L6 18L8.5 15.5L7.02882 14.1674L10.3879 11L12 12L9.6 14.1445L11 15.5L7.37667 19Z" fill="#363D52"/>
</svg>
