<svg width="25" height="27" viewBox="0 0 25 27" fill="none" xmlns="http://www.w3.org/2000/svg">
<path d="M20.0833 8.95128C20.0833 7.04138 19.3107 5.20971 17.9355 3.8592C16.5602 2.5087 14.6949 1.75 12.75 1.75C10.8051 1.75 8.93982 2.5087 7.56455 3.8592C6.18928 5.20971 5.41667 7.04138 5.41667 8.95128C5.41667 17.3528 1.75 19.7532 1.75 19.7532H23.75C23.75 19.7532 20.0833 17.3528 20.0833 8.95128Z" stroke="#2C3238" stroke-width="2" stroke-linecap="round" stroke-linejoin="round"/>
<path d="M14.8646 24.554C14.6498 24.9178 14.3413 25.2197 13.9702 25.4296C13.5992 25.6395 13.1784 25.75 12.7502 25.75C12.3219 25.75 11.9012 25.6395 11.5301 25.4296C11.159 25.2197 10.8506 24.9178 10.6357 24.554" stroke="#2C3238" stroke-width="2" stroke-linecap="round" stroke-linejoin="round"/>
</svg>
