<svg width="26" height="25" viewBox="0 0 26 25" fill="none" xmlns="http://www.w3.org/2000/svg">
<path d="M16.9198 1.70105C18.9623 2.19761 20.7753 3.37253 22.0611 5.03292C23.3469 6.69331 24.029 8.74047 23.9956 10.8383M21.9273 18.8396L21.5336 21.897C21.4982 22.181 21.4038 22.4544 21.2564 22.6998C21.109 22.9452 20.9119 23.1571 20.6776 23.322C20.4433 23.4869 20.1771 23.6012 19.896 23.6574C19.6149 23.7136 19.3251 23.7107 19.0452 23.6486C15.947 22.9033 13.0668 21.4431 10.636 19.3852C8.37036 17.5028 6.54747 15.1458 5.29681 12.4815C3.91348 9.6006 3.22933 6.43526 3.29978 3.24194C3.31055 2.95683 3.38068 2.67711 3.5057 2.42059C3.63073 2.16406 3.80791 1.93636 4.02596 1.75198C4.24401 1.5676 4.49816 1.43058 4.77223 1.34964C5.0463 1.26869 5.33427 1.24561 5.61782 1.28185L8.6811 1.67627C9.17727 1.73521 9.63513 1.97222 9.96934 2.34311C10.3035 2.714 10.4913 3.19347 10.4976 3.69215C10.5009 4.68724 10.617 5.67882 10.8436 6.64797C10.934 7.03044 10.9127 7.4307 10.7822 7.80134C10.6517 8.17198 10.4174 8.49745 10.1072 8.7392L8.64379 9.86654C9.76884 12.6052 11.6135 14.9903 13.983 16.7702L15.4464 15.6429C15.7594 15.4046 16.1342 15.2609 16.5265 15.2288C16.9188 15.1967 17.3122 15.2775 17.66 15.4617C18.542 15.926 19.4737 16.2893 20.4374 16.5446C20.9244 16.6783 21.3453 16.986 21.62 17.4091C21.8947 17.8322 22.0041 18.3413 21.9273 18.8396Z" stroke="#6B7186" stroke-width="2" stroke-linecap="round" stroke-linejoin="round"/>
<path d="M15.494 6.32422C16.5066 6.66021 17.3959 7.29012 18.048 8.13331C18.7001 8.97651 19.0854 9.99464 19.1545 11.0574" stroke="#81B622" stroke-width="2.2" stroke-linecap="round" stroke-linejoin="round"/>
</svg>
