<svg width="23" height="17" viewBox="0 0 23 17" fill="none" xmlns="http://www.w3.org/2000/svg">
<path d="M11.5 10.5255C12.66 10.5255 13.6004 9.58508 13.6004 8.42503C13.6004 7.26499 12.66 6.32458 11.5 6.32458C10.3399 6.32458 9.39954 7.26499 9.39954 8.42503C9.39954 9.58508 10.3399 10.5255 11.5 10.5255Z" stroke="white" stroke-width="2" stroke-linecap="round" stroke-linejoin="round"/>
<path d="M15.953 3.97226C16.5388 4.55748 17.0036 5.25245 17.3207 6.01742C17.6378 6.78239 17.8011 7.60237 17.8011 8.43046C17.8011 9.25855 17.6378 10.0785 17.3207 10.8435C17.0036 11.6085 16.5388 12.3034 15.953 12.8887M7.04705 12.8782C6.46117 12.2929 5.99639 11.598 5.67928 10.833C5.36217 10.068 5.19895 9.24805 5.19895 8.41996C5.19895 7.59186 5.36217 6.77189 5.67928 6.00692C5.99639 5.24195 6.46117 4.54698 7.04705 3.96176M18.9251 1.00012C20.894 2.96958 22 5.64039 22 8.42521C22 11.21 20.894 13.8808 18.9251 15.8503M4.07491 15.8503C2.10605 13.8808 1 11.21 1 8.42521C1 5.64039 2.10605 2.96958 4.07491 1.00012" stroke="white" stroke-width="2" stroke-linecap="round" stroke-linejoin="round"/>
</svg>
