<svg width="100" height="142" viewBox="0 0 100 142" fill="none" xmlns="http://www.w3.org/2000/svg">
<circle cx="50" cy="71" r="50" fill="#F35E5E"/>
<mask id="mask0_201_4380" style="mask-type:alpha" maskUnits="userSpaceOnUse" x="0" y="21" width="100" height="100">
<circle cx="50" cy="71" r="50" fill="#E0C779"/>
</mask>
<g mask="url(#mask0_201_4380)">
</g>
<g style="mix-blend-mode:multiply" opacity="0.36">
<path d="M76.9901 64.8065C76.9958 64.7925 77.0015 64.7756 77.0044 64.7616C77.0101 64.7307 77.0101 64.697 77.0101 64.6634C77.0101 64.6493 77.0101 64.6353 77.0101 64.6185C77.0015 64.568 76.9873 64.5174 76.9616 64.4641C76.9616 64.4641 76.9616 64.4613 76.9559 64.4557C76.9559 64.4557 76.9531 64.4501 76.9474 64.4473C76.9445 64.4417 76.9388 64.4389 76.936 64.4333C76.9303 64.4276 76.9246 64.4192 76.9189 64.4136C76.916 64.408 76.9103 64.4052 76.9075 64.3996C76.8761 64.3659 76.8334 64.3182 76.7792 64.2621C76.7792 64.2593 76.7735 64.2565 76.7707 64.2536C76.7507 64.234 76.7308 64.2144 76.708 64.1919L76.7023 64.1863C76.0923 63.5914 74.4363 62.3089 71.9937 62.9403C71.7657 62.9992 71.5291 63.075 71.2868 63.1704L70.9904 50.4858C70.9904 47.0789 68.1572 44.2895 64.6971 44.2895H63.1408C58.8455 43.1304 52.1873 42.2717 43.9587 44.2895H42.1117C38.6515 44.2895 35.8184 47.0789 35.8184 50.4858L35.4992 64.147C35.3738 64.1049 35.2512 64.0684 35.1287 64.0376C32.686 63.4089 31.03 64.6886 30.4201 65.2836L30.4144 65.2892C30.3915 65.3116 30.3716 65.3313 30.3516 65.3509C30.3488 65.3537 30.3459 65.3565 30.3402 65.3621C30.2861 65.4183 30.2462 65.4632 30.2148 65.4968C30.2091 65.5025 30.2034 65.5081 30.2006 65.5137C30.1949 65.5221 30.1892 65.5277 30.1835 65.5333C30.1778 65.5389 30.1721 65.5446 30.1692 65.5502C30.1692 65.553 30.1664 65.5558 30.1635 65.5586C30.1578 65.5642 30.1578 65.567 30.1578 65.567C30.1322 65.6203 30.1179 65.6736 30.1094 65.7214C30.1094 65.7382 30.1094 65.7522 30.1094 65.7663C30.1094 65.7999 30.1094 65.8308 30.1151 65.8617C30.1179 65.8785 30.1236 65.8925 30.1293 65.9066C30.1407 65.9346 30.1521 65.9627 30.1692 65.9908C30.1778 66.0048 30.1863 66.0188 30.1977 66.03C30.2205 66.0581 30.2433 66.0834 30.2747 66.1086C30.2861 66.1199 30.2975 66.1283 30.3089 66.1395C30.3459 66.1676 30.3887 66.1956 30.4343 66.2209C30.4429 66.2265 30.4486 66.2293 30.4571 66.2349C30.6367 66.3303 30.8761 66.4061 31.1554 66.4678C32.324 66.7204 34.2052 66.6951 35.4393 66.6446L34.5586 104.421C34.5586 107.827 37.3917 110.617 40.8519 110.617H41.5246C45.8684 112.135 54.3336 113.934 65.25 110.617H65.9512C69.4114 110.617 72.2445 107.827 72.2445 104.421L71.3381 65.5305C72.5409 65.5923 74.6814 65.6456 75.9641 65.3706C76.2434 65.3088 76.4828 65.2331 76.6624 65.1376C76.6709 65.132 76.6766 65.1292 76.6852 65.1236C76.7308 65.0983 76.7735 65.0703 76.8106 65.0422C76.822 65.0338 76.8334 65.0226 76.8448 65.0114C76.8733 64.9861 76.8989 64.9608 76.9217 64.9328C76.9331 64.9187 76.9417 64.9075 76.9502 64.8935C76.9673 64.8654 76.9787 64.8374 76.9901 64.8093V64.8065Z" fill="#00193E"/>
</g>
<path d="M68.7046 49.6411C68.7046 46.2342 65.8714 43.4447 62.4112 43.4447H60.855C56.5597 42.2857 49.9015 41.427 41.6729 43.4447H39.8259C36.3657 43.4447 33.5326 46.2342 33.5326 49.6411L32.2756 103.576C32.2756 106.983 35.1088 109.772 38.569 109.772H39.2416C43.5854 111.29 52.0506 113.089 62.967 109.772H63.6682C67.1284 109.772 69.9615 106.983 69.9615 103.576L68.7046 49.6411Z" fill="#FCD545"/>
<path d="M68.0974 50.5812C68.0974 47.2922 65.3641 44.5982 62.0207 44.5982H60.5186C56.3715 43.4784 49.9443 42.6506 41.9978 44.5982H40.2135C36.873 44.5982 34.1368 47.2894 34.1368 50.5812L32.9226 102.653C32.9226 105.942 35.656 108.636 38.9993 108.636H39.6492C43.8419 110.101 52.0135 111.838 62.5566 108.636H63.2321C66.5726 108.636 69.3088 105.944 69.3088 102.653L68.0946 50.5812H68.0974Z" fill="#FF9A0B"/>
<path d="M64.2838 46.6327C64.2838 43.4953 64.6971 45.2857 61.5134 45.2857H60.0825C56.1293 44.2165 50.0012 43.4307 42.4282 45.2857H40.7294C37.5428 45.2857 37.6198 44.2445 37.6198 47.382L34.7268 59.9656L33.7805 100.626C33.7805 103.764 36.3856 106.329 39.5722 106.329H40.1907C44.1896 107.726 51.9793 109.382 62.0293 106.329H62.6734C65.86 106.329 68.4651 103.764 68.4651 100.626L67.4989 59.1433L64.2866 46.6327H64.2838Z" fill="#FCD545"/>
<path d="M39.8658 58.4474L40.6268 47.1238C40.6268 47.1238 50.6881 43.4307 61.995 47.6655L63.0012 58.7589V60.583L40.0311 60.6363L39.8629 58.4502L39.8658 58.4474Z" fill="#F9DD82"/>
<path d="M62.3742 99.5572L61.6132 105.22C61.6132 105.22 51.5518 107.067 40.2449 104.951L39.2388 99.4056V98.4936L62.2089 98.4683L62.377 99.5628L62.3742 99.5572Z" fill="#F9DD82"/>
<path d="M36.3344 62.4913V97.7106L39.6321 91.3655V77.2189L36.3344 62.4913Z" fill="#134C59"/>
<path opacity="0.29" d="M36.8474 67.8036V95.4207L38.5262 90.4479V79.3545L36.8474 67.8036Z" fill="url(#paint0_linear_201_4380)"/>
<path d="M65.9341 62.4913V97.7106L62.6335 91.3655V77.2189L65.9341 62.4913Z" fill="#134C59"/>
<path d="M45.8142 57.9955V46.6327L42.7559 58.4473L45.8142 57.9955Z" fill="#FCD545"/>
<path d="M56.9075 57.9955V46.6327L59.9658 58.4473L56.9075 57.9955Z" fill="#FCD545"/>
<path d="M64.5974 59.6962C64.5974 59.6962 49.7875 55.3744 38.2668 59.6962L40.3247 76.0346C40.3247 76.0346 50.0611 73.8737 61.5818 76.0346L64.5974 59.6962Z" fill="#06313D"/>
<path d="M63.6311 60.2265C63.6311 60.2265 49.9071 56.2219 39.2358 60.2265L41.1427 75.3639C41.1427 75.3639 50.1637 73.3629 60.8378 75.3639L63.6339 60.2265H63.6311Z" fill="#134C59"/>
<path opacity="0.29" d="M62.6306 60.7738C62.6306 60.7738 50.0354 57.1003 40.2391 60.7738L41.9892 74.6679C41.9892 74.6679 50.2691 72.8297 60.0654 74.6679L62.6306 60.7738Z" fill="url(#paint1_linear_201_4380)"/>
<path d="M37.5229 101.48C37.5229 101.48 52.3328 104.098 63.8535 101.48L61.7956 91.5816C61.7956 91.5816 52.0592 92.8894 40.5385 91.5816L37.5229 101.48Z" fill="#06313D"/>
<path d="M38.492 101.16C38.492 101.16 52.2159 103.584 62.8872 101.16L60.9804 91.9885C60.9804 91.9885 51.9594 93.2009 41.2852 91.9885L38.4891 101.16H38.492Z" fill="#134C59"/>
<path opacity="0.29" d="M39.4924 100.826C39.4924 100.826 52.0877 103.051 61.8839 100.826L60.1339 92.4067C60.1339 92.4067 51.8539 93.5208 42.0576 92.4067L39.4924 100.826Z" fill="url(#paint2_linear_201_4380)"/>
<path d="M61.5134 45.2829C61.5134 45.2829 53.4016 41.5617 39.8658 45.3474" stroke="#134C59" stroke-width="3.31" stroke-miterlimit="10"/>
<path d="M41.2539 44.4915C41.2539 44.4915 36.628 42.4878 34.2281 48.44C34.2281 48.44 34.0855 49.9133 36.0209 48.44C36.0209 48.44 42.6819 45.5411 41.2568 44.4915H41.2539Z" fill="#FEFAF1"/>
<path d="M60.8693 44.4915C60.8693 44.4915 65.4952 42.4878 67.8951 48.44C67.8951 48.44 68.0376 49.9133 66.1023 48.44C66.1023 48.44 59.4413 45.5411 60.8664 44.4915H60.8693Z" fill="#FEFAF1"/>
<path d="M62.129 109.034C62.129 109.034 66.755 111.038 69.1549 105.086C69.1549 105.086 69.2974 103.612 67.3621 105.086C67.3621 105.086 60.7011 107.985 62.1262 109.034H62.129Z" fill="#C4330C"/>
<path d="M39.9969 109.034C39.9969 109.034 35.371 111.038 32.9711 105.086C32.9711 105.086 32.8286 103.612 34.7639 105.086C34.7639 105.086 41.4278 107.985 39.9998 109.034H39.9969Z" fill="#C4330C"/>
<path opacity="0.65" d="M45.2272 76.9382H56.1949C58.2756 76.9382 59.9658 78.6024 59.9658 80.651V87.1925C59.9658 89.2412 58.2756 90.9053 56.1949 90.9053H45.2272C43.1465 90.9053 41.4563 89.2412 41.4563 87.1925V80.651C41.4563 78.6024 43.1465 76.9382 45.2272 76.9382Z" fill="url(#paint3_linear_201_4380)"/>
<path opacity="0.29" d="M65.4381 67.8036V95.4207L63.7593 90.4479V79.3545L65.4381 67.8036Z" fill="url(#paint4_linear_201_4380)"/>
<path d="M74.6787 63.6222C74.6787 63.6222 71.5862 59.6878 66.5897 63.7878C66.5897 63.7878 65.7489 65.0142 68.1631 64.6297C68.1631 64.6297 75.4226 65.2134 74.6787 63.6222Z" fill="#FCD545"/>
<path d="M73.6812 64.5259C74.4366 64.3632 74.8954 64.0854 74.6788 63.6251C74.6788 63.6251 72.8404 61.2903 69.708 62.0985C71.3098 62.4914 72.735 63.3024 73.6812 64.5288V64.5259Z" fill="#FF9A0B"/>
<path d="M27.872 64.7195C27.872 64.7195 30.9645 60.785 35.961 64.885C35.961 64.885 36.8018 66.1114 34.3876 65.7269C34.3876 65.7269 27.1281 66.3106 27.872 64.7195Z" fill="#FCD545"/>
<path d="M28.8724 65.6232C28.1171 65.4604 27.6582 65.1826 27.8748 64.7223C27.8748 64.7223 29.7132 62.3875 32.8456 63.1957C31.2438 63.5886 29.8187 64.3996 28.8724 65.626V65.6232Z" fill="#FF9A0B"/>
<path d="M45.8142 109.048C45.8142 109.048 50.8363 110.176 54.7668 109.048" stroke="#380D03" stroke-width="4.41" stroke-miterlimit="10"/>
<defs>
<linearGradient id="paint0_linear_201_4380" x1="36.8474" y1="81.6136" x2="38.5262" y2="81.6136" gradientUnits="userSpaceOnUse">
<stop stop-color="white"/>
<stop offset="1" stop-color="#134C59" stop-opacity="0"/>
</linearGradient>
<linearGradient id="paint1_linear_201_4380" x1="51.4349" y1="74.6679" x2="51.4349" y2="59.1433" gradientUnits="userSpaceOnUse">
<stop stop-color="white"/>
<stop offset="1" stop-color="#134C59" stop-opacity="0"/>
</linearGradient>
<linearGradient id="paint2_linear_201_4380" x1="50.691" y1="92.4095" x2="50.691" y2="101.816" gradientUnits="userSpaceOnUse">
<stop stop-color="white"/>
<stop offset="1" stop-color="#134C59" stop-opacity="0"/>
</linearGradient>
<linearGradient id="paint3_linear_201_4380" x1="50.711" y1="90.9025" x2="50.711" y2="76.9382" gradientUnits="userSpaceOnUse">
<stop stop-color="white"/>
<stop offset="1" stop-color="#F9DD82" stop-opacity="0"/>
</linearGradient>
<linearGradient id="paint4_linear_201_4380" x1="65.4381" y1="5.81981e-05" x2="63.7564" y2="5.81981e-05" gradientUnits="userSpaceOnUse">
<stop stop-color="white"/>
<stop offset="1" stop-color="#134C59" stop-opacity="0"/>
</linearGradient>
</defs>
</svg>
