<svg width="30" height="32" viewBox="0 0 30 32" fill="none" xmlns="http://www.w3.org/2000/svg">
<path d="M23.2727 10.0908C25.8835 10.0908 28 8.23893 28 5.95448C28 3.67003 25.8835 1.81812 23.2727 1.81812C20.6619 1.81812 18.5455 3.67003 18.5455 5.95448C18.5455 8.23893 20.6619 10.0908 23.2727 10.0908Z" stroke="#FF9900" stroke-width="2.5" stroke-linecap="round" stroke-linejoin="round"/>
<path d="M6.13636 19.5454C8.42081 19.5454 10.2727 17.6935 10.2727 15.4091C10.2727 13.1246 8.42081 11.2727 6.13636 11.2727C3.85191 11.2727 2 13.1246 2 15.4091C2 17.6935 3.85191 19.5454 6.13636 19.5454Z" stroke="#FF9900" stroke-width="2.5" stroke-linecap="round" stroke-linejoin="round"/>
<path d="M23.2727 30.1817C25.8835 30.1817 28 28.3297 28 26.0453C28 23.7608 25.8835 21.9089 23.2727 21.9089C20.6619 21.9089 18.5455 23.7608 18.5455 26.0453C18.5455 28.3297 20.6619 30.1817 23.2727 30.1817Z" stroke="#FF9900" stroke-width="2.5" stroke-linecap="round" stroke-linejoin="round"/>
<path d="M10.2727 18.3635L19.7273 23.0908" stroke="#FF9900" stroke-width="2.5" stroke-linecap="round" stroke-linejoin="round"/>
<path d="M19.7273 7.72729L10.2727 13.6364" stroke="#FF9900" stroke-width="2.5" stroke-linecap="round" stroke-linejoin="round"/>
</svg>
