<svg width="32" height="30" viewBox="0 0 32 30" fill="none" xmlns="http://www.w3.org/2000/svg">
<path d="M28.8728 10.2474H26.1239C24.766 10.2474 23.6576 9.17662 23.6576 7.85689V3.97595H31.3356V7.86047C31.3356 9.17662 30.2309 10.2474 28.873 10.2474H28.8728ZM25.1256 5.39885V7.86047C25.1256 8.39405 25.5734 8.82804 26.1239 8.82804H28.8728C29.4233 8.82804 29.871 8.39405 29.871 7.86047V5.39885H25.1256Z" fill="url(#paint0_linear_221_797)"/>
<path d="M25.1145 1.97302H26.5825V4.68722H25.1145V1.97302Z" fill="url(#paint1_linear_221_797)"/>
<path d="M28.4102 1.97302H29.8782V4.68722H28.4102V1.97302Z" fill="url(#paint2_linear_221_797)"/>
<path d="M18.8457 25.8352H2.22058V2.06201C2.22058 0.959274 3.14542 0.0628662 4.28313 0.0628662H16.7797C17.9174 0.0628662 18.8422 0.959274 18.8422 2.06201V25.8352H18.8457ZM3.90628 24.4123H17.3814L17.1458 13.1072L17.1491 2.45002C17.1491 2.13342 16.8812 1.87374 16.5545 1.87374L4.73312 1.87342C4.40648 1.87342 4.13856 2.1331 4.13856 2.44969V13.6985L3.90628 24.4123Z" fill="url(#paint3_linear_221_797)"/>
<path d="M21.0698 29.4279H0V26.4114C0 25.3086 0.924841 24.4122 2.06255 24.4122H19.0071C20.1448 24.4122 21.0697 25.3086 21.0697 26.4114L21.0698 29.4279ZM1.46769 28.005H19.6055V26.4114C19.6055 26.0948 19.3376 25.8351 19.0109 25.8351H2.06233C1.73569 25.8351 1.46777 26.0948 1.46777 26.4114L1.46769 28.005Z" fill="url(#paint4_linear_221_797)"/>
<path d="M6.42633 10.4391C6.15107 10.4391 5.8905 10.3359 5.69598 10.1438C5.49779 9.9553 5.39136 9.69918 5.39136 9.43235V5.2455C5.39136 4.69057 5.85746 4.23877 6.43002 4.23877H14.6362C15.2087 4.23877 15.6749 4.69054 15.6749 5.2455V9.43593C15.6749 9.99085 15.2088 10.4427 14.6362 10.4427H6.42599C6.42966 10.4391 6.42966 10.4391 6.42599 10.4391L6.42633 10.4391ZM6.8594 5.66174V9.01619H14.2066V5.66174H6.8594Z" fill="url(#paint5_linear_221_797)"/>
<path d="M24.6777 24.0491C22.7179 24.0491 21.1214 22.5017 21.1214 20.6021V14.3023C21.1214 13.9679 20.8388 13.694 20.4938 13.694H18.1119V12.2711H20.4938C21.6499 12.2711 22.5894 13.1817 22.5894 14.3023V20.6057C22.5894 21.7227 23.5253 22.6297 24.6777 22.6297C25.8301 22.6297 26.766 21.7227 26.766 20.6057V9.5354H28.234V20.6018C28.2303 22.5049 26.6375 24.0487 24.6777 24.0487L24.6777 24.0491Z" fill="url(#paint6_linear_221_797)"/>
<defs>
<linearGradient id="paint0_linear_221_797" x1="27.4966" y1="3.97595" x2="27.4966" y2="10.2474" gradientUnits="userSpaceOnUse">
<stop stop-color="#81B622"/>
<stop offset="0.432292" stop-color="#81B622"/>
<stop offset="1" stop-color="#71AD05"/>
</linearGradient>
<linearGradient id="paint1_linear_221_797" x1="25.8485" y1="1.97302" x2="25.8485" y2="4.68722" gradientUnits="userSpaceOnUse">
<stop stop-color="#81B622"/>
<stop offset="0.432292" stop-color="#81B622"/>
<stop offset="1" stop-color="#71AD05"/>
</linearGradient>
<linearGradient id="paint2_linear_221_797" x1="29.1442" y1="1.97302" x2="29.1442" y2="4.68722" gradientUnits="userSpaceOnUse">
<stop stop-color="#81B622"/>
<stop offset="0.432292" stop-color="#81B622"/>
<stop offset="1" stop-color="#71AD05"/>
</linearGradient>
<linearGradient id="paint3_linear_221_797" x1="10.5331" y1="0.0628662" x2="10.5331" y2="25.8352" gradientUnits="userSpaceOnUse">
<stop stop-color="#81B622"/>
<stop offset="0.432292" stop-color="#81B622"/>
<stop offset="1" stop-color="#71AD05"/>
</linearGradient>
<linearGradient id="paint4_linear_221_797" x1="10.5349" y1="24.4122" x2="10.5349" y2="29.4279" gradientUnits="userSpaceOnUse">
<stop stop-color="#81B622"/>
<stop offset="0.432292" stop-color="#81B622"/>
<stop offset="1" stop-color="#71AD05"/>
</linearGradient>
<linearGradient id="paint5_linear_221_797" x1="10.5331" y1="4.23877" x2="10.5331" y2="10.4427" gradientUnits="userSpaceOnUse">
<stop stop-color="#81B622"/>
<stop offset="0.432292" stop-color="#81B622"/>
<stop offset="1" stop-color="#71AD05"/>
</linearGradient>
<linearGradient id="paint6_linear_221_797" x1="23.173" y1="9.5354" x2="23.173" y2="24.0491" gradientUnits="userSpaceOnUse">
<stop stop-color="#81B622"/>
<stop offset="0.432292" stop-color="#81B622"/>
<stop offset="1" stop-color="#71AD05"/>
</linearGradient>
</defs>
</svg>
