<svg width="23" height="23" viewBox="0 0 23 23" fill="none" xmlns="http://www.w3.org/2000/svg">
<path d="M21.1923 8.22394H19.1747C18.178 8.22394 17.3644 7.43803 17.3644 6.46936V3.62079H23.0001V6.47199C23.0001 7.43803 22.1892 8.22394 21.1925 8.22394H21.1923ZM18.442 4.66518V6.47199C18.442 6.86363 18.7706 7.18217 19.1747 7.18217H21.1923C21.5964 7.18217 21.925 6.86363 21.925 6.47199V4.66518H18.442Z" fill="#596076"/>
<path d="M18.4338 2.15051H19.5113V4.14271H18.4338V2.15051Z" fill="#596076"/>
<path d="M20.8528 2.15051H21.9304V4.14271H20.8528V2.15051Z" fill="#596076"/>
<path d="M13.8326 19.6652H1.62994V2.21589C1.62994 1.40649 2.30877 0.748535 3.14384 0.748535H12.3162C13.1512 0.748535 13.8301 1.40649 13.8301 2.21589V19.6652H13.8326ZM2.86723 18.6208H12.7578L12.5849 10.323L12.5873 2.50068C12.5873 2.26831 12.3907 2.0777 12.1509 2.0777L3.47412 2.07746C3.23437 2.07746 3.03773 2.26807 3.03773 2.50044V10.7569L2.86723 18.6208Z" fill="#596076"/>
<path d="M15.465 22.3021H0V20.088C0 19.2786 0.678825 18.6206 1.5139 18.6206H13.951C14.7861 18.6206 15.4649 19.2786 15.4649 20.088L15.465 22.3021ZM1.07727 21.2577H14.3902V20.088C14.3902 19.8556 14.1936 19.665 13.9538 19.665H1.51373C1.27398 19.665 1.07733 19.8556 1.07733 20.088L1.07727 21.2577Z" fill="#596076"/>
<path d="M4.71694 8.36445C4.5149 8.36445 4.32364 8.28873 4.18086 8.14774C4.0354 8.00936 3.95728 7.82137 3.95728 7.62552V4.5524C3.95728 4.14509 4.29939 3.81348 4.71964 3.81348H10.7429C11.1631 3.81348 11.5053 4.14507 11.5053 4.5524V7.62814C11.5053 8.03545 11.1632 8.36707 10.7429 8.36707H4.71669C4.71938 8.36446 4.71938 8.36446 4.71669 8.36446L4.71694 8.36445ZM5.0348 4.85792V7.32006H10.4276V4.85792H5.0348Z" fill="#596076"/>
<path d="M18.1131 18.3542C16.6747 18.3542 15.5029 17.2184 15.5029 15.8241V11.2001C15.5029 10.9546 15.2954 10.7536 15.0422 10.7536H13.2939V9.70919H15.0422C15.8908 9.70919 16.5804 10.3776 16.5804 11.2001V15.8267C16.5804 16.6466 17.2673 17.3124 18.1132 17.3124C18.959 17.3124 19.6459 16.6466 19.6459 15.8267V7.70123H20.7234V15.8239C20.7207 17.2207 19.5516 18.3539 18.1132 18.3539L18.1131 18.3542Z" fill="#596076"/>
<path d="M6.78656 17.482L5.52002 16.562L7.82002 14.262L6.46654 13.036L9.55685 10.122L11.04 11.042L8.83202 13.015L10.12 14.262L6.78656 17.482Z" fill="#81B622"/>
</svg>
