<svg 
          width="21" 
          height="21" fill="none" 
          xmlns="http://www.w3.org/2000/svg">
          <path d="M 21 10.5 C 21 16.29898953437805 16.29898953437805 21 10.5 21 C 4.701010465621948 21 0 16.29898953437805 0 10.5 C 0 4.701010465621948 4.701010465621948 0 10.5 0 C 16.29898953437805 0 21 4.701010465621948 21 10.5 Z M 10.5 5.25 C 9.797273844480515 5.25 9.248174786567688 5.85674911737442 9.318098992109299 6.5559874176979065 L 9.778450816869736 11.159506916999817 C 9.815520465373993 11.53020465373993 10.12745413184166 11.8125 10.5 11.8125 C 10.87254524230957 11.8125 11.184479534626007 11.530203402042389 11.221549808979034 11.159506916999817 L 11.681901633739471 6.555986166000366 C 11.751825213432312 5.85674786567688 11.202726781368256 5.25 10.5 5.25 Z M 10.502022743225098 13.125 C 9.777149051427841 13.125 9.189522743225098 13.712626934051514 9.189522743225098 14.4375 C 9.189522743225098 15.162373065948486 9.777149051427841 15.75 10.502022743225098 15.75 C 11.226895809173584 15.75 11.814522743225098 15.162373065948486 11.814522743225098 14.4375 C 11.814522743225098 13.712626934051514 11.226895809173584 13.125 10.502022743225098 13.125 Z" fill="rgb(255,255,255)"/>
        </svg>