<svg 
          width="21" 
          height="21" fill="none" 
          xmlns="http://www.w3.org/2000/svg">
          <path d="M 10.5 0 C 4.725 0 0 4.725 0 10.5 C 0 16.275 4.725 21 10.5 21 C 16.275 21 21 16.275 21 10.5 C 21 4.725 16.275 0 10.5 0 Z M 14.910000801086426 8.715000200271607 L 9.869999599456788 13.755000400543214 C 9.449999593198301 14.1750004068017 8.820000006258487 14.1750004068017 8.4 13.755000400543214 L 6.090000200271606 11.444999599456787 C 5.670000194013118 11.0249995931983 5.670000194013118 10.395000006258487 6.090000200271606 9.975 C 6.510000206530094 9.554999993741513 7.139999793469906 9.554999993741513 7.559999799728394 9.975 L 9.134999799728394 11.55 L 13.440000200271607 7.244999599456787 C 13.860000206530094 6.824999593198299 14.490000794827939 6.824999593198299 14.910000801086426 7.244999599456787 C 15.330000807344913 7.664999605715275 15.330000807344913 8.29500019401312 14.910000801086426 8.715000200271607 Z" fill="rgb(255,255,255)"/>
        </svg>