<svg width="135" height="94" viewBox="0 0 135 94" fill="none" xmlns="http://www.w3.org/2000/svg">
<g clip-path="url(#clip0_190_462)">
<path style="mix-blend-mode:multiply" d="M70.5235 93.9999C102.046 93.9999 127.599 91.7336 127.599 88.9381C127.599 86.1425 102.046 83.8762 70.5235 83.8762C39.0013 83.8762 13.4475 86.1425 13.4475 88.9381C13.4475 91.7336 39.0013 93.9999 70.5235 93.9999Z" fill="url(#paint0_linear_190_462)"/>
<path style="mix-blend-mode:multiply" opacity="0.3" d="M46.5111 76.7699C46.3233 75.9672 46.0065 74.7847 45.9322 74.6147C44.4302 71.2968 41.1915 68.9557 40.3036 65.3254C40.0298 64.2063 40.0024 62.9843 39.3922 62.0076C38.782 61.0308 37.2409 60.5246 36.5173 61.4223C35.7741 62.3437 36.134 64.8311 34.1665 64.3447C32.6645 63.973 32.8523 61.3986 32.9344 60.2201C33.0048 59.1642 33.087 58.0411 32.5824 57.1118C32.0778 56.1825 30.7323 55.6486 29.9578 56.3604C29.1716 57.0762 29.3398 58.6343 28.3619 59.0337C27.7908 59.271 27.122 58.919 26.7621 58.4049C26.4062 57.8948 26.281 57.266 26.1167 56.661C25.5574 54.5769 24.4661 52.6392 22.9837 51.089C22.4713 50.5512 21.8845 50.045 21.1687 49.867C20.4529 49.6891 19.5885 49.9303 19.2482 50.5907C18.7397 51.5833 19.6042 52.6946 20.3356 53.5329C21.067 54.3713 21.6929 55.7435 20.8676 56.4909C20.1752 57.1158 19.0096 56.6293 18.4972 55.8463C17.9887 55.0594 17.8792 54.0866 17.535 53.2126C16.8583 51.4924 15.1451 50.0648 13.2598 50.1043C12.6692 50.1162 12.012 50.3179 11.75 50.8517C11.4879 51.3856 11.7226 52.0341 12.0746 52.5087C12.4266 52.9832 12.8921 53.3708 13.1816 53.8888C14.2181 55.7356 11.7578 56.4791 10.5531 55.4351C9.52825 54.5492 9.28574 53.0979 8.64035 51.959C7.72116 50.3337 5.90624 49.2659 4.05221 49.262C-0.0156997 49.2501 -0.751054 52.5838 0.62969 55.9333C1.35722 57.705 2.49154 59.623 3.93487 60.9003C6.35997 63.0437 9.62604 64.1826 12.8452 64.0046C13.7213 63.9572 14.621 63.8148 15.4619 64.0718C16.3029 64.3289 17.0656 65.1435 16.9053 66.0175C16.6041 67.6665 13.694 67.6744 13.428 69.3314C13.2872 70.2093 14.0968 71.0121 14.9613 71.1821C15.8257 71.3522 16.7058 71.0714 17.5467 70.7946C19.0722 70.2884 20.5977 69.7783 22.1231 69.2721C22.7372 69.0665 23.3826 68.8648 24.0163 68.9834C24.6499 69.106 25.2484 69.6755 25.1663 70.324C25.045 71.2652 23.7268 71.5776 23.41 72.4713C23.1284 73.2781 23.8716 74.152 24.7008 74.3181C25.53 74.4803 26.371 74.1441 27.1376 73.7843C28.0373 73.3611 31.3424 72.3566 31.538 74.3062C31.5889 74.8441 31.1312 75.2791 30.7205 75.6271C29.9304 76.2994 29.5275 77.7507 30.9083 78.0749C31.4676 78.2054 32.0465 78.0275 32.5941 77.8693C36.9358 76.6078 41.5865 76.4338 46.0065 77.375C46.2216 77.4185 46.4368 77.466 46.648 77.5174C46.6754 77.5253 46.6089 77.201 46.5072 76.7699H46.5111Z" fill="url(#paint1_linear_190_462)"/>
<path d="M46.5386 50.136C46.1866 54.6759 49.042 58.6423 49.5192 63.0635C49.5426 63.2889 49.4566 64.7758 49.3705 65.7803C49.3236 66.322 49.2806 66.7175 49.2493 66.6977C49.0224 66.5554 48.7956 66.4209 48.5609 66.2865C43.8084 63.4827 38.3676 61.8732 32.8681 61.6478C32.1719 61.6201 31.4365 61.6003 30.8381 61.2325C29.3713 60.319 30.3843 58.8005 31.5539 58.3299C32.1601 58.0847 32.8564 57.7644 33.0011 57.1198C33.5174 54.7905 29.3165 54.664 28.1157 54.8064C27.0909 54.925 25.9918 54.9883 25.0921 54.4742C24.1925 53.964 23.6684 52.663 24.302 51.8404C25.0061 50.9309 26.6489 51.0812 27.1456 50.0411C27.4899 49.3253 27.0127 48.4316 26.3242 48.0441C25.6358 47.6565 24.8144 47.6446 24.0282 47.6407C22.0725 47.6328 20.1168 47.6288 18.1571 47.6209C17.0854 47.617 15.955 47.5972 15.024 47.0673C14.0892 46.5334 13.4595 45.2917 13.9562 44.3307C14.895 42.5195 18.2588 43.6426 19.2367 41.8512C19.753 40.9021 19.1819 39.6643 18.3058 39.0395C17.4296 38.4186 16.3383 38.2288 15.3018 37.9441C11.5155 36.904 8.16726 34.3178 6.18024 30.8971C4.99898 28.8605 4.41617 26.203 4.24798 23.8698C3.92724 19.4565 6.03942 15.8934 10.741 17.4832C12.8845 18.2069 14.5742 20.1446 15.0201 22.3829C15.333 23.9528 15.0592 25.7205 15.908 27.1442C16.9015 28.817 20.0307 28.9119 19.5339 26.373C19.397 25.6652 19.0059 25.0364 18.779 24.3483C18.5522 23.6642 18.5287 22.8218 19.0333 22.3077C19.5379 21.7937 20.3788 21.8134 21.0633 22.027C23.2577 22.7151 24.6971 25.0285 24.8222 27.2826C24.8887 28.4255 24.6423 29.596 24.9318 30.6993C25.2251 31.8066 26.3868 32.819 27.4273 32.3642C28.6633 31.8224 28.4599 29.9915 27.9358 28.7379C27.4077 27.4843 26.8288 25.8629 27.7949 24.9138C28.4364 24.2811 29.5316 24.3364 30.2905 24.8189C31.0454 25.3053 31.5343 26.1199 31.9215 26.9385C33.0441 29.3073 33.5683 31.9687 33.4235 34.5985C33.3805 35.3578 33.2866 36.1369 33.5057 36.8645C33.7247 37.5921 34.3662 38.2605 35.1172 38.2091C36.4002 38.126 36.7991 36.2634 37.9804 35.7414C39.146 35.2234 40.4994 36.3623 40.7301 37.6317C40.957 38.8971 40.4368 40.1666 39.9557 41.3608C39.4159 42.6935 38.2151 45.6001 39.8109 46.6085C41.8997 47.9333 42.4277 44.9199 43.6403 44.1409C44.8137 43.3856 46.4057 44.5719 46.7381 45.9363C47.0745 47.3046 46.6443 48.7282 46.5308 50.1281L46.5386 50.136Z" fill="#00BEC5"/>
<path d="M49.3704 65.7763C49.3235 66.3181 49.2805 66.7136 49.2492 66.6938C49.0223 66.5514 48.7954 66.417 48.5607 66.2825C47.313 62.5889 45.5919 59.1208 43.558 55.791C39.494 49.1434 33.7676 43.35 27.1221 39.344C23.6409 37.2481 19.8507 35.7256 16.4008 33.5862C13.6354 31.8699 10.428 29.2836 9.5205 25.9934C9.46574 25.7957 9.74346 25.6731 9.84907 25.851C11.0421 27.9193 12.2663 29.8886 14.1673 31.3716C16.0292 32.8229 18.0631 33.9856 20.1558 35.0494C23.7738 36.8882 27.2863 38.6322 30.6072 40.9891C33.6268 43.1364 36.3648 45.5804 38.8447 48.3446C43.4563 53.4855 46.9649 59.3146 49.3704 65.7724V65.7763Z" fill="white"/>
<path style="mix-blend-mode:multiply" opacity="0.3" d="M122.695 56.1272L117.418 54.7115C117.418 54.7115 121.036 54.1459 124.459 53.8019C125.925 51.8483 126.547 50.7134 127.752 48.5819H121.584L128.879 46.4701C129.899 44.5522 130.553 43.1839 131.343 41.4122L127.369 41.7523L132.102 39.5773C134.163 34.8042 134.996 31.949 134.996 31.949C134.996 31.949 130.748 33.2342 126.665 34.82L125.084 40.1863L124.783 35.7493C122.362 36.738 122.46 36.651 119.757 38.0904L118.341 44.3821L117.355 39.3005C115.576 40.2931 114.954 40.6648 113.307 41.8472L112.255 48.1073L111.257 43.2313C110.397 43.8839 109.572 44.5601 108.797 45.26L109.087 51.7218L106.955 47.0396C105.66 48.2616 105.914 48.1904 104.991 49.5587C104.702 49.9857 104.432 50.4049 104.174 50.8162L104.506 55.7792L102.946 52.4376C99.0967 61.367 100.387 65.891 100.387 65.891C100.387 65.891 104.534 68.5524 113.988 63.3403L111.441 62.1816L116.319 61.9602C116.659 61.7545 116.319 61.9602 116.671 61.7348C118.846 60.3309 120.86 58.3734 122.698 56.1272H122.695Z" fill="url(#paint2_linear_190_462)"/>
<path d="M124.861 13.3862L120.594 17.3012L124.674 15.581C124.435 17.7164 124.2 19.3853 123.766 21.758L116.784 26.4916L123.289 24.372C122.73 27.0334 122.456 28.4412 121.564 31.0038C118.071 32.5421 114.445 34.377 114.445 34.377L120.481 34.0606C119.295 37.0622 117.833 39.8185 116.006 42.041C115.709 42.3969 116.002 42.0647 115.709 42.3969L110.639 44.303L113.714 44.6549C105.484 53.3906 100.223 52.0025 100.223 52.0025C100.223 52.0025 100.098 51.8127 99.9024 51.4093C99.7616 51.1048 99.5739 50.6738 99.3861 50.1083C98.6273 47.9095 97.7394 43.694 98.4122 36.9396L101.181 39.9292L99.171 34.812C99.3079 34.29 99.4487 33.7522 99.6169 33.2065C100.129 31.4427 99.8829 31.6049 100.841 29.8767L104.659 34.0804L102.187 27.3656C102.766 26.3572 103.411 25.3606 104.099 24.3838L106.787 29.1807L105.797 22.2207C107.143 20.4134 107.671 19.8084 109.216 18.1514L111.961 23.1737L111.34 16.0516C113.71 13.6116 113.636 13.7381 115.861 11.8597L117.668 16.4391L117.539 10.2383C121.314 7.1696 125.366 4.35791 125.366 4.35791C125.366 4.35791 125.44 7.65602 124.869 13.3941L124.861 13.3862Z" fill="#00BEC5"/>
<path d="M120.931 20.1446C120.137 20.3146 119.417 20.892 118.724 21.3072C118.349 21.5287 117.973 21.7501 117.598 21.9676C118.818 18.9819 119.851 15.933 120.571 12.8563C120.586 12.793 120.492 12.7416 120.457 12.8089C118.842 16.4233 117.324 20.0457 115.717 23.6285C115.634 21.5247 115.38 19.2667 114.805 17.3527C114.75 17.1707 114.508 17.2182 114.492 17.3962C114.261 19.8361 114.598 22.632 115.067 25.0561C113.874 27.6582 112.615 30.2366 111.222 32.7675C111.179 31.5812 110.87 30.3829 110.651 29.2282C110.393 27.856 110.323 26.2148 109.517 25.0522C109.482 25.0047 109.403 25.0047 109.388 25.068C109.063 26.373 109.536 27.8243 109.771 29.1294C110.033 30.5925 110.182 32.1744 110.804 33.5347C110.745 33.6415 110.69 33.7483 110.628 33.8511C109.912 35.1047 109.169 36.3346 108.406 37.5526C107.866 35.3617 106.802 32.9732 105.793 31.0236C105.684 30.814 105.375 30.9603 105.426 31.1778C105.961 33.4833 106.787 36.2317 107.925 38.3158C107.182 39.4824 106.411 40.6292 105.629 41.7642C105.21 40.8625 104.792 39.9649 104.366 39.0672C103.924 38.1378 103.544 37.1176 102.848 36.3504C102.77 36.2673 102.59 36.3267 102.605 36.4532C102.731 37.4339 103.219 38.3356 103.618 39.2333C104.107 40.3287 104.6 41.4201 105.101 42.5116C104.283 43.6782 103.442 44.8329 102.59 45.9758C102.12 45.0504 101.577 44.1488 100.982 43.3104C100.916 43.2155 100.732 43.2669 100.779 43.3974C101.166 44.4572 101.647 45.5092 102.202 46.4978C101.283 47.7158 100.348 48.918 99.3901 50.1083C99.5779 50.6738 99.7656 51.1049 99.9064 51.4094C100.88 50.227 101.819 49.0089 102.742 47.783C103.403 47.9056 104.119 47.6723 104.788 47.5299C105.93 47.2848 107.049 46.8933 108.164 46.5492C108.34 46.4938 108.265 46.2368 108.089 46.2724C106.892 46.5018 105.688 46.6006 104.479 46.7548C104.123 46.8023 103.767 46.8142 103.427 46.8616C105.195 44.4533 106.881 41.9777 108.461 39.4429C109.701 39.3084 110.933 39.0197 112.149 38.7429C113.35 38.4661 114.731 38.2842 115.771 37.6C115.928 37.4972 115.853 37.2837 115.681 37.2639C114.539 37.1413 113.307 37.5447 112.185 37.774C111.16 37.9836 110.115 38.1655 109.094 38.4147C109.826 37.2164 110.542 36.0063 111.234 34.7844C111.86 33.6811 112.478 32.554 113.092 31.4151C114.011 31.2213 114.895 30.7389 115.748 30.3671C116.796 29.9124 118.052 29.5209 118.904 28.7458C118.983 28.6746 118.924 28.5283 118.814 28.5322C117.664 28.5757 116.487 29.1847 115.423 29.5999C114.864 29.8174 114.265 30.0112 113.698 30.2604C114.907 27.9548 116.065 25.5979 117.097 23.1856C117.801 22.715 118.494 22.2286 119.186 21.7462C119.824 21.3033 120.578 20.9236 121.052 20.2988C121.11 20.2197 121.013 20.1288 120.934 20.1485L120.931 20.1446Z" fill="white"/>
<path d="M108.367 71.3957L47.2935 82.6306L38.2424 32.3364L99.3159 21.1015C101.326 20.7298 103.255 22.0783 103.622 24.1149L111.348 67.0457C111.715 69.0783 110.381 71.0279 108.367 71.3996V71.3957Z" fill="#974D0E"/>
<path d="M101.941 32.9939C104.577 25.8949 101.022 17.9791 94.0005 15.3135C86.9788 12.648 79.1493 16.2421 76.5128 23.3412C73.8763 30.4403 77.4312 38.356 84.4529 41.0216C91.4746 43.6871 99.3041 40.093 101.941 32.9939Z" fill="#FFD524"/>
<path d="M94.9921 37.6893C100.194 34.4676 101.828 27.5923 98.6415 22.3328C95.4549 17.0734 88.6545 15.4215 83.4524 18.6432C78.2503 21.865 76.6165 28.7403 79.8031 33.9997C82.9897 39.2592 89.79 40.911 94.9921 37.6893Z" fill="#FFB02D"/>
<path d="M99.3784 32.542C97.3249 37.4496 92.0132 40.2929 86.7053 39.0393C80.7638 37.6354 77.0753 31.6285 78.4639 25.6215C78.8472 23.9566 79.5826 22.4697 80.5682 21.224C80.3179 21.8053 80.1145 22.4183 79.9659 23.0589C78.5773 29.0659 82.2697 35.0729 88.2073 36.4768C92.506 37.4931 96.8008 35.8243 99.3745 32.542H99.3784Z" fill="#F89723"/>
<g style="mix-blend-mode:overlay" opacity="0.2">
<path d="M89.0404 21.5641C89.0991 22.6991 89.5841 23.7708 90.2295 24.7001C91.3521 26.3175 92.9754 27.5751 94.8176 28.2394C95.3848 28.4451 95.9833 28.5954 96.5856 28.5716C98.4044 28.4886 98.9638 26.6418 98.6 25.0797C98.1385 23.1183 96.8438 21.2992 95.3183 20.0337C94.0588 18.9897 91.3873 17.5661 89.9009 18.9304C89.2204 19.5552 88.9974 20.6704 89.0443 21.5641H89.0404Z" fill="white"/>
</g>
<g clip-path="url(#clip1_190_462)">
<path d="M94.395 23.466C94.5173 23.2338 94.448 22.9545 94.2398 22.8414L89.327 20.1711C89.1177 20.06 88.8493 20.1582 88.7269 20.3904C88.6046 20.6226 88.6739 20.9018 88.8821 21.015L90.2144 21.7391C90.9729 22.1514 91.3623 22.9942 91.2489 23.8235L88.2603 22.1991C88.051 22.0879 87.7819 22.1832 87.6595 22.4154C87.5371 22.6475 87.6065 22.9268 87.8147 23.04L90.9101 24.7224C90.3331 25.5828 89.2062 25.8872 88.2928 25.3933L86.9587 24.6682C86.7505 24.555 86.4821 24.6533 86.3597 24.8855L86.3579 24.8845C86.2355 25.1167 86.3049 25.3959 86.5131 25.5091L87.3313 25.9538L87.8511 30.9584C87.8691 31.1318 87.9637 31.2793 88.1067 31.357C88.476 31.5577 88.9368 31.2004 88.8905 30.7493L88.4547 26.5618L91.4288 28.1784C91.637 28.2915 91.9053 28.1932 92.0277 27.9611C92.1501 27.7289 92.0807 27.4496 91.8726 27.3365L90.553 26.6192C91.1382 26.3529 91.6549 25.9117 92.0153 25.3206L92.7286 25.7082C92.9367 25.8214 93.2051 25.7231 93.3275 25.491C93.4499 25.2588 93.3805 24.9795 93.1724 24.8664L92.3958 24.4443C92.5337 23.953 92.5554 23.4479 92.4746 22.965L93.7942 23.6823C94.0024 23.7955 94.2708 23.6972 94.3931 23.465L94.395 23.466Z" fill="#FFF500"/>
</g>
<path d="M64.4443 29.074C70.4699 26.7708 73.5078 19.9652 71.2298 13.8732C68.9517 7.78119 62.2203 4.70976 56.1947 7.01295C50.1691 9.31613 47.1312 16.1218 49.4092 22.2137C51.6873 28.3057 58.4188 31.3771 64.4443 29.074Z" fill="#FFD524"/>
<path d="M60.4101 27.6331C65.6484 27.5822 69.8542 23.2477 69.8039 17.9517C69.7536 12.6556 65.4663 8.40349 60.228 8.45433C54.9897 8.50517 50.7839 12.8397 50.8342 18.1358C50.8845 23.4318 55.1718 27.6839 60.4101 27.6331Z" fill="#FFB02D"/>
<path d="M69.804 17.9498C69.8627 22.5252 66.6553 26.6142 62.0515 27.4763C56.9001 28.4412 51.9482 25.0008 50.9899 19.7926C50.7239 18.3492 50.7943 16.9255 51.1464 15.5968C51.1464 16.1386 51.1972 16.6962 51.2989 17.2498C52.2533 22.458 57.2052 25.8984 62.3605 24.9335C66.0881 24.2336 68.8966 21.4258 69.804 17.9458V17.9498Z" fill="#F89723"/>
<g style="mix-blend-mode:overlay" opacity="0.2">
<path d="M57.9289 12.9195C58.3631 13.7895 59.1101 14.4657 59.9355 14.9719C61.371 15.8538 63.0764 16.2769 64.7505 16.1583C65.2668 16.1227 65.787 16.0357 66.2525 15.8024C67.6567 15.1024 67.465 13.4534 66.6475 12.354C65.6188 10.9738 63.976 9.98916 62.3449 9.53043C60.9994 9.15079 58.41 8.95701 57.7059 10.5507C57.3852 11.2783 57.5886 12.2353 57.9289 12.9195Z" fill="white"/>
</g>
<g clip-path="url(#clip2_190_462)">
<path d="M62.9983 13.5319C62.9983 13.2685 62.8073 13.0555 62.5712 13.0555H56.9988C56.7627 13.0578 56.5718 13.2731 56.5718 13.5364C56.5718 13.7998 56.7627 14.0127 56.9988 14.0127H58.51C59.3703 14.0127 60.1053 14.5692 60.3907 15.3546H57.0009C56.7648 15.3569 56.5718 15.5699 56.5718 15.8332C56.5718 16.0966 56.7627 16.3096 56.9988 16.3096H60.5098C60.401 17.3446 59.5489 18.153 58.5141 18.1553H57.0009C56.7648 18.1553 56.5738 18.3705 56.5738 18.6339H56.5718C56.5718 18.8972 56.7627 19.1102 56.9988 19.1102H57.9269L60.711 23.2733C60.8075 23.4175 60.9595 23.5023 61.1217 23.5023C61.5405 23.5023 61.7807 22.9664 61.5303 22.5909L59.1999 19.1079H62.5733C62.8094 19.1079 63.0003 18.8926 63.0003 18.6293C63.0003 18.3659 62.8094 18.153 62.5733 18.153H61.0765C61.4687 17.6377 61.7192 17.0011 61.7623 16.3073H62.5712C62.8073 16.3073 62.9983 16.092 62.9983 15.8287C62.9983 15.5653 62.8073 15.3524 62.5712 15.3524H61.6904C61.5836 14.8531 61.3681 14.3975 61.0724 14.0104H62.5692C62.8053 14.0104 62.9962 13.7952 62.9962 13.5319H62.9983Z" fill="#FFF500"/>
</g>
<path d="M35.9517 23.7103C41.0219 22.3272 44.0231 17.0505 42.6551 11.9244C41.287 6.79827 36.0678 3.76399 30.9976 5.14712C25.9274 6.53024 22.9262 11.807 24.2942 16.9331C25.6623 22.0592 30.8815 25.0935 35.9517 23.7103Z" fill="#FFD524"/>
<path d="M40.7226 17.1515C42.2092 13.1037 40.1687 8.60389 36.165 7.10093C32.1613 5.59796 27.7105 7.66099 26.2239 11.7088C24.7373 15.7567 26.7779 20.2565 30.7816 21.7594C34.7853 23.2624 39.2361 21.1994 40.7226 17.1515Z" fill="#FFB02D"/>
<path d="M40.9216 12.3264C41.9229 15.9172 40.2527 19.8203 36.8067 21.4852C32.9539 23.3478 28.3345 21.6948 26.4922 17.7995C25.9798 16.7199 25.7373 15.581 25.7373 14.4658C25.8507 14.8929 26.0072 15.32 26.2028 15.7353C28.0451 19.6305 32.6606 21.2835 36.5173 19.4209C39.3061 18.0764 40.9294 15.2607 40.9177 12.3304L40.9216 12.3264Z" fill="#F89723"/>
<g style="mix-blend-mode:overlay" opacity="0.2">
<path d="M30.5212 10.9028C31.0454 11.4959 31.7768 11.8677 32.5278 12.0931C33.842 12.4806 35.2736 12.449 36.5683 11.9982C36.9673 11.8598 37.3584 11.6779 37.6753 11.3971C38.6336 10.5469 38.1407 9.2893 37.2646 8.59725C36.1654 7.7312 34.6674 7.30807 33.2866 7.29225C32.1484 7.28038 30.0714 7.67979 29.8484 9.08366C29.7468 9.7243 30.1066 10.4322 30.5212 10.9028Z" fill="white"/>
</g>
<g clip-path="url(#clip3_190_462)">
<path d="M34.7133 10.8017C34.7133 10.6042 34.5988 10.4445 34.4571 10.4445H31.1137C30.972 10.4462 30.8574 10.6076 30.8574 10.8051C30.8574 11.0026 30.972 11.1624 31.1137 11.1624H32.0204C32.5365 11.1624 32.9776 11.5797 33.1488 12.1688H31.1149C30.9732 12.1705 30.8574 12.3302 30.8574 12.5277C30.8574 12.7252 30.972 12.885 31.1137 12.885H33.2202C33.155 13.6613 32.6437 14.2675 32.0228 14.2692H31.1149C30.9732 14.2692 30.8587 14.4307 30.8587 14.6282H30.8574C30.8574 14.8257 30.972 14.9854 31.1137 14.9854H31.6705L33.341 18.1078C33.3989 18.216 33.49 18.2795 33.5874 18.2795C33.8387 18.2795 33.9828 17.8776 33.8325 17.596L32.4343 14.9837H34.4583C34.6 14.9837 34.7146 14.8223 34.7146 14.6248C34.7146 14.4272 34.6 14.2675 34.4583 14.2675H33.5603C33.7956 13.8811 33.9458 13.4036 33.9717 12.8833H34.4571C34.5988 12.8833 34.7133 12.7218 34.7133 12.5243C34.7133 12.3268 34.5988 12.1671 34.4571 12.1671H33.9286C33.8645 11.7927 33.7352 11.4509 33.5578 11.1606H34.4559C34.5975 11.1606 34.7121 10.9992 34.7121 10.8017H34.7133Z" fill="#FFF500"/>
</g>
<path d="M39.4136 38.8618L100.49 27.6289C102.499 27.2594 104.427 28.609 104.793 30.64L112.517 73.5701C112.882 75.6011 111.548 77.5508 109.539 77.9203L48.4624 89.1532L39.4136 38.8618Z" fill="url(#paint3_linear_190_462)"/>
<path style="mix-blend-mode:color-dodge" opacity="0.3" d="M104.796 30.636L105.613 35.1719C105.246 33.1393 103.321 31.7908 101.307 32.1585L40.2333 43.3935L39.4158 38.8576L100.489 27.6227C102.5 27.2509 104.428 28.5994 104.796 30.636Z" fill="url(#paint4_linear_190_462)"/>
<path d="M87.2627 49.8197L108.486 45.9164C109.606 45.7104 110.684 46.4648 110.888 47.597L112.314 55.5263C112.518 56.6585 111.772 57.7483 110.652 57.9542L89.4286 61.8576L87.2627 49.8197Z" fill="#CB7319"/>
<path d="M97.1214 54.2251C97.3991 55.7634 96.39 57.2384 94.8684 57.5153C93.3469 57.796 91.8879 56.7758 91.6141 55.2374C91.3364 53.6991 92.3455 52.2241 93.8671 51.9472C95.3886 51.6665 96.8476 52.6867 97.1214 54.2251Z" fill="#532C00"/>
<path d="M93.382 53.7465C93.5189 54.059 93.781 54.2883 94.0431 54.5019C94.356 54.7589 94.6963 55.008 95.0952 55.0792C95.4903 55.1504 95.9597 54.9804 96.1083 54.6007C96.2296 54.2883 96.1083 53.9324 95.9206 53.6516C95.549 53.094 94.9153 52.7342 94.2582 52.6709C93.6011 52.6116 93.0613 52.9952 93.382 53.7386V53.7465Z" fill="#774206"/>
<path d="M50.4228 80.511H22.7571V83.4571C22.7571 87.0716 29.3009 90.0059 37.3781 90.0059C45.4553 90.0059 51.9913 87.0756 51.9913 83.4571V80.511H50.4267H50.4228Z" fill="#CB7319"/>
<path d="M51.9874 80.3923V82.2865C51.9874 85.901 45.4435 88.8353 37.3742 88.8353C29.3049 88.8353 22.7532 85.905 22.7532 82.2865V80.507C22.7532 80.1115 22.8314 79.72 22.9918 79.3364H51.7527C51.8935 79.6765 51.9757 80.0324 51.9874 80.3883V80.3923Z" fill="#F89723"/>
<path d="M51.9952 80.5071C51.9952 80.5466 51.9952 80.5822 51.9913 80.6217C51.8622 84.1848 45.3614 87.0519 37.3781 87.0519C29.3948 87.0519 22.7571 84.1215 22.7571 80.5031C22.7571 80.1077 22.8353 79.7161 22.9957 79.3326C24.22 76.2757 30.1928 73.9543 37.3742 73.9543C44.5556 73.9543 50.5284 76.2757 51.7527 79.3326C51.8935 79.6726 51.9757 80.0286 51.9874 80.3845C51.9913 80.424 51.9913 80.4596 51.9913 80.4992L51.9952 80.5071Z" fill="#FFD524"/>
<path d="M37.3742 85.8338C43.9392 85.8338 49.2611 83.4489 49.2611 80.507C49.2611 77.5651 43.9392 75.1802 37.3742 75.1802C30.8093 75.1802 25.4873 77.5651 25.4873 80.507C25.4873 83.4489 30.8093 85.8338 37.3742 85.8338Z" fill="#FFB02D"/>
<path d="M49.0812 81.4245C48.119 83.9277 43.2414 85.8338 37.3742 85.8338C30.8069 85.8338 25.4834 83.4492 25.4834 80.507C25.4834 79.6924 25.8902 78.9212 26.6216 78.2332C26.5004 78.5297 26.4378 78.8382 26.4378 79.1506C26.4378 82.0928 31.7613 84.4774 38.3286 84.4774C43.081 84.4774 47.1763 83.2317 49.0812 81.4245Z" fill="#F89723"/>
<path d="M38.7198 82.4883V83.6074H36.5489V82.4803C35.0156 82.3854 33.5293 82.1007 32.438 81.6973L33.5958 80.6533C34.7692 81.1081 36.5489 81.4284 37.738 81.4284C38.6181 81.4284 39.1735 81.2821 39.1735 81.0132C39.1735 80.1432 33.1538 80.6692 33.1538 78.858C33.1538 78.0473 34.4602 77.4857 36.545 77.3315V76.2559H38.7159V77.3236C40.0536 77.3908 41.3248 77.5925 42.287 77.8733L41.1605 78.9331C39.9519 78.6246 38.4186 78.3834 37.472 78.3834C36.7562 78.3834 36.283 78.5021 36.283 78.7354C36.283 79.5817 42.3027 79.0992 42.3027 80.942C42.3027 81.8397 40.7694 82.3657 38.712 82.4922L38.7198 82.4883Z" fill="#FFD524"/>
<g style="mix-blend-mode:overlay" opacity="0.2">
<path d="M35.5868 77.462C35.9232 77.98 36.6938 78.4269 37.5934 78.7868C39.1619 79.4155 41.1685 79.8189 43.2572 79.9257C43.9026 79.9573 44.5636 79.9652 45.1894 79.8861C47.0748 79.6489 47.2156 78.7275 46.4528 78.0433C45.4945 77.1852 43.6953 76.4813 41.7904 76.0621C40.218 75.718 37.0732 75.3463 35.845 76.1451C35.2856 76.5089 35.3208 77.0507 35.5868 77.462Z" fill="white"/>
</g>
<path d="M49.4721 75.8328H21.8064V78.7789C21.8064 82.3934 28.3503 85.3277 36.4274 85.3277C44.5046 85.3277 51.0406 82.3973 51.0406 78.7789V75.8328H49.476H49.4721Z" fill="#CB7319"/>
<path d="M51.0367 75.7141V77.6083C51.0367 81.2228 44.4928 84.1571 36.4235 84.1571C28.3542 84.1571 21.8025 81.2267 21.8025 77.6083V75.8288C21.8025 75.4333 21.8807 75.0418 22.0411 74.6582H50.802C50.9428 74.9983 51.025 75.3542 51.0367 75.7101V75.7141Z" fill="#F89723"/>
<path d="M51.0445 75.8288C51.0445 75.8684 51.0445 75.904 51.0406 75.9435C50.9115 79.5066 44.4107 82.3736 36.4274 82.3736C28.4441 82.3736 21.8064 79.4433 21.8064 75.8249C21.8064 75.4294 21.8846 75.0379 22.045 74.6543C23.2693 71.5975 29.2421 69.2761 36.4235 69.2761C43.6049 69.2761 49.5777 71.5975 50.802 74.6543C50.9428 74.9944 51.025 75.3503 51.0367 75.7062C51.0406 75.7458 51.0406 75.7814 51.0406 75.8209L51.0445 75.8288Z" fill="#FFD524"/>
<path d="M36.4235 81.1556C42.9885 81.1556 48.3105 78.7707 48.3105 75.8288C48.3105 72.8868 42.9885 70.502 36.4235 70.502C29.8586 70.502 24.5366 72.8868 24.5366 75.8288C24.5366 78.7707 29.8586 81.1556 36.4235 81.1556Z" fill="#FFB02D"/>
<path d="M48.1305 76.7463C47.1683 79.2496 42.2907 81.1517 36.4235 81.1517C29.8562 81.1517 24.5327 78.7671 24.5327 75.8249C24.5327 75.0103 24.9395 74.2391 25.6709 73.551C25.5497 73.8476 25.4871 74.1561 25.4871 74.4685C25.4871 77.4107 30.8106 79.7953 37.3779 79.7953C42.1304 79.7953 46.2257 78.5496 48.1305 76.7424V76.7463Z" fill="#F89723"/>
<path d="M37.7691 77.81V78.9292H35.5982V77.8021C34.065 77.7072 32.5786 77.4225 31.4873 77.0191L32.6451 75.9751C33.8185 76.4299 35.5982 76.7502 36.7873 76.7502C37.6674 76.7502 38.2228 76.6039 38.2228 76.335C38.2228 75.465 32.2031 75.9909 32.2031 74.1797C32.2031 73.3691 33.5095 72.8075 35.5943 72.6533V71.5776H37.7652V72.6454C39.1029 72.7126 40.3741 72.9143 41.3364 73.1951L40.2099 74.2549C39.0012 73.9464 37.4679 73.7052 36.5213 73.7052C35.8056 73.7052 35.3323 73.8238 35.3323 74.0572C35.3323 74.9034 41.352 74.421 41.352 76.2638C41.352 77.1615 39.8187 77.6874 37.7613 77.814L37.7691 77.81Z" fill="#FFD524"/>
<g style="mix-blend-mode:overlay" opacity="0.2">
<path d="M34.6361 72.7838C34.9725 73.3018 35.7431 73.7487 36.6427 74.1085C38.2112 74.7373 40.2178 75.1407 42.3065 75.2475C42.9519 75.2791 43.6129 75.287 44.2388 75.2079C46.1241 74.9706 46.2649 74.0492 45.5022 73.3651C44.5438 72.5069 42.7446 71.803 40.8397 71.3838C39.2673 71.0398 36.1225 70.6681 34.8943 71.4669C34.3349 71.8307 34.3702 72.3725 34.6361 72.7838Z" fill="white"/>
</g>
<path d="M54.5415 70.312H26.8718V73.2582C26.8718 76.8726 33.4157 79.8069 41.4929 79.8069C49.57 79.8069 56.1061 76.8766 56.1061 73.2582V70.312H54.5415Z" fill="#CB7319"/>
<path d="M56.1061 70.1933V72.0876C56.1061 75.702 49.5622 78.6363 41.4929 78.6363C33.4235 78.6363 26.8718 75.706 26.8718 72.0876V70.308C26.8718 69.9125 26.9501 69.521 27.1104 69.1375H55.8714C56.0122 69.4775 56.0943 69.8335 56.1061 70.1894V70.1933Z" fill="#F89723"/>
<path d="M56.11 70.3081C56.11 70.3476 56.11 70.3832 56.106 70.4228C55.977 73.9858 49.4761 76.8529 41.4929 76.8529C33.5096 76.8529 26.8718 73.9226 26.8718 70.3041C26.8718 69.9087 26.9501 69.5172 27.1104 69.1336C28.3347 66.0767 34.3075 63.7554 41.4889 63.7554C48.6704 63.7554 54.6432 66.0767 55.8675 69.1336C56.0083 69.4737 56.0904 69.8296 56.1021 70.1855C56.106 70.225 56.106 70.2606 56.106 70.3002L56.11 70.3081Z" fill="#FFD524"/>
<path d="M41.4926 75.6348C48.0576 75.6348 53.3795 73.2499 53.3795 70.308C53.3795 67.3661 48.0576 64.9812 41.4926 64.9812C34.9277 64.9812 29.6057 67.3661 29.6057 70.308C29.6057 73.2499 34.9277 75.6348 41.4926 75.6348Z" fill="#FFB02D"/>
<path d="M53.196 71.2295C52.2337 73.7327 47.3562 75.6349 41.489 75.6349C34.9216 75.6349 29.5981 73.2503 29.5981 70.3081C29.5981 69.4934 30.0049 68.7223 30.7364 68.0342C30.6151 68.3308 30.5525 68.6392 30.5525 68.9516C30.5525 71.8938 35.876 74.2784 42.4434 74.2784C47.1958 74.2784 51.2911 73.0328 53.196 71.2255V71.2295Z" fill="#F89723"/>
<path d="M42.8384 72.2893V73.4084H40.6676V72.2814C39.1343 72.1865 37.6479 71.9017 36.5566 71.4984L37.7144 70.4544C38.8879 70.9091 40.6676 71.2295 41.8567 71.2295C42.7367 71.2295 43.2922 71.0831 43.2922 70.8142C43.2922 69.9442 37.2724 70.4702 37.2724 68.659C37.2724 67.8483 38.5789 67.2868 40.6637 67.1325V66.0569H42.8345V67.1246C44.1722 67.1918 45.4435 67.3935 46.4057 67.6743L45.2792 68.7341C44.0705 68.4257 42.5373 68.1844 41.5907 68.1844C40.8749 68.1844 40.4016 68.3031 40.4016 68.5364C40.4016 69.3827 46.4213 68.9002 46.4213 70.743C46.4213 71.6407 44.888 72.1667 42.8306 72.2932L42.8384 72.2893Z" fill="#FFD524"/>
<g style="mix-blend-mode:overlay" opacity="0.2">
<path d="M39.7052 67.2669C40.0416 67.785 40.8122 68.2318 41.7118 68.5917C43.2803 69.2205 45.2869 69.6238 47.3756 69.7306C48.021 69.7622 48.682 69.7702 49.3078 69.6911C51.1932 69.4538 51.334 68.5324 50.5712 67.8482C49.6129 66.9901 47.8137 66.2862 45.9088 65.867C44.3364 65.523 41.1916 65.1512 39.9634 65.95C39.404 66.3139 39.4392 66.8556 39.7052 67.2669Z" fill="white"/>
</g>
<path d="M46.0576 66.9153H18.3918V69.8614C18.3918 73.4759 24.9357 76.4102 33.0129 76.4102C41.09 76.4102 47.6261 73.4799 47.6261 69.8614V66.9153H46.0615H46.0576Z" fill="#CB7319"/>
<path d="M47.6222 66.7966V68.6908C47.6222 72.3053 41.0783 75.2396 33.009 75.2396C24.9396 75.2396 18.3879 72.3093 18.3879 68.6908V66.9113C18.3879 66.5158 18.4662 66.1243 18.6265 65.7407H47.3914C47.5322 66.0808 47.6143 66.4367 47.6261 66.7926L47.6222 66.7966Z" fill="#F89723"/>
<path d="M47.63 66.9112C47.63 66.9508 47.63 66.9864 47.6261 67.0259C47.497 70.589 40.9961 73.456 33.0129 73.456C25.0296 73.456 18.3918 70.5257 18.3918 66.9073C18.3918 66.5118 18.4701 66.1203 18.6304 65.7367C19.8547 62.6798 25.8275 60.3585 33.009 60.3585C40.1904 60.3585 46.1632 62.6798 47.3875 65.7367C47.5283 66.0768 47.6104 66.4327 47.6222 66.7886C47.6261 66.8282 47.6261 66.8638 47.6261 66.9033L47.63 66.9112Z" fill="#FFD524"/>
<path d="M33.009 72.2381C39.5739 72.2381 44.8959 69.8532 44.8959 66.9113C44.8959 63.9694 39.5739 61.5845 33.009 61.5845C26.444 61.5845 21.1221 63.9694 21.1221 66.9113C21.1221 69.8532 26.444 72.2381 33.009 72.2381Z" fill="#FFB02D"/>
<path d="M44.716 67.8327C43.7538 70.3359 38.8762 72.242 33.009 72.242C26.4417 72.242 21.1182 69.8574 21.1182 66.9152C21.1182 66.1006 21.525 65.3295 22.2564 64.6414C22.1351 64.9379 22.0726 65.2464 22.0726 65.5588C22.0726 68.501 27.3961 70.8856 33.9634 70.8856C38.7158 70.8856 42.8111 69.6399 44.716 67.8327Z" fill="#F89723"/>
<path d="M34.3546 68.8926V70.0117H32.1837V68.8846C30.6504 68.7897 29.1641 68.505 28.0728 68.1016L29.2305 67.0576C30.404 67.5124 32.1837 67.8327 33.3728 67.8327C34.2529 67.8327 34.8083 67.6864 34.8083 67.4175C34.8083 66.5475 28.7886 67.0735 28.7886 65.2623C28.7886 64.4516 30.095 63.89 32.1798 63.7358V62.6602H34.3506V63.7279C35.6884 63.7951 36.9596 63.9968 37.9218 64.2776L36.7953 65.3374C35.5867 65.0289 34.0534 64.7877 33.1068 64.7877C32.391 64.7877 31.9177 64.9064 31.9177 65.1397C31.9177 65.9859 37.9374 65.5035 37.9374 67.3463C37.9374 68.244 36.4042 68.77 34.3467 68.8965L34.3546 68.8926Z" fill="#FFD524"/>
<g style="mix-blend-mode:overlay" opacity="0.2">
<path d="M31.2216 63.8702C31.558 64.3882 32.3285 64.8351 33.2282 65.195C34.7966 65.8237 36.8032 66.2271 38.8919 66.3339C39.5373 66.3655 40.1984 66.3734 40.8242 66.2943C42.7095 66.0571 42.8503 65.1357 42.0876 64.4515C41.1293 63.5934 39.33 62.8895 37.4251 62.4703C35.8527 62.1262 32.7079 61.7545 31.4797 62.5533C30.9204 62.9171 30.9556 63.4589 31.2216 63.8702Z" fill="white"/>
</g>
<path d="M53.1528 60.1134H25.4832V63.0596C25.4832 66.674 32.027 69.6083 40.1042 69.6083C48.1813 69.6083 54.7174 66.678 54.7174 63.0596V60.1134H53.1528Z" fill="#CB7319"/>
<path d="M54.7174 59.9947V61.889C54.7174 65.5034 48.1735 68.4377 40.1042 68.4377C32.0348 68.4377 25.4832 65.5074 25.4832 61.889V60.1094C25.4832 59.7139 25.5614 59.3224 25.7218 58.9388H54.4827C54.6235 59.2789 54.7056 59.6348 54.7174 59.9908V59.9947Z" fill="#F89723"/>
<path d="M54.7213 60.1134C54.7213 60.1529 54.7213 60.1885 54.7174 60.2281C54.5883 63.7911 48.0875 66.6582 40.1042 66.6582C32.1209 66.6582 25.4832 63.7279 25.4832 60.1094C25.4832 59.714 25.5614 59.3225 25.7218 58.9389C26.946 55.882 32.9188 53.5607 40.1003 53.5607C47.2817 53.5607 53.2545 55.882 54.4788 58.9389C54.6196 59.279 54.7017 59.6349 54.7135 59.9908C54.7174 60.0303 54.7174 60.0659 54.7174 60.1055L54.7213 60.1134Z" fill="#FFD524"/>
<path d="M40.104 65.4402C46.6689 65.4402 51.9909 63.0553 51.9909 60.1134C51.9909 57.1715 46.6689 54.7866 40.104 54.7866C33.539 54.7866 28.217 57.1715 28.217 60.1134C28.217 63.0553 33.539 65.4402 40.104 65.4402Z" fill="#FFB02D"/>
<path d="M51.8073 61.0309C50.8451 63.5342 45.9675 65.4403 40.1003 65.4403C33.533 65.4403 28.2095 63.0557 28.2095 60.1135C28.2095 59.2988 28.6163 58.5277 29.3477 57.8396C29.2264 58.1362 29.1639 58.4447 29.1639 58.7571C29.1639 61.6993 34.4874 64.0839 41.0547 64.0839C45.8071 64.0839 49.9024 62.8382 51.8073 61.0309Z" fill="#F89723"/>
<g style="mix-blend-mode:overlay" opacity="0.2">
<path d="M38.3166 57.0684C38.6529 57.5865 39.4235 58.0333 40.3231 58.3932C41.8916 59.022 43.8982 59.4254 45.9869 59.5321C46.6323 59.5638 47.2933 59.5717 47.9192 59.4926C49.8045 59.2553 49.9453 58.3339 49.1826 57.6498C48.2243 56.7916 46.425 56.0877 44.5201 55.6685C42.9477 55.3245 39.8029 54.9527 38.5747 55.7516C38.0154 56.1154 38.0506 56.6572 38.3166 57.0684Z" fill="white"/>
</g>
<g clip-path="url(#clip4_190_462)">
<path d="M44.385 57.4342C44.4291 57.2758 44.2809 57.095 44.0537 57.0299L38.6908 55.4929C38.4632 55.4292 38.2434 55.506 38.1994 55.6644C38.1554 55.8228 38.3035 56.0035 38.5308 56.0687L39.9851 56.4855C40.813 56.7228 41.4274 57.2602 41.5708 57.8114L38.3084 56.8764C38.0808 56.8126 37.8594 56.8875 37.8154 57.0459C37.7714 57.2043 37.9195 57.3851 38.1468 57.4502L41.5257 58.4186C41.248 59.0112 40.2928 59.2624 39.2965 58.9783L37.8402 58.561C37.6129 58.4958 37.3932 58.5726 37.3491 58.731L37.3472 58.7305C37.3031 58.8889 37.4513 59.0696 37.6785 59.1348L38.5717 59.3908L40.5551 62.6628C40.6239 62.7762 40.7559 62.8691 40.912 62.9138C41.3151 63.0293 41.6359 62.7733 41.4576 62.4783L39.7972 59.7405L43.0438 60.6709C43.271 60.7361 43.4908 60.6593 43.5348 60.5009C43.5788 60.3425 43.4307 60.1617 43.2034 60.0966L41.7629 59.6837C42.2265 59.482 42.574 59.1681 42.7315 58.7627L43.51 58.9858C43.7373 59.0509 43.957 58.9741 44.001 58.8157C44.0451 58.6573 43.8969 58.4766 43.6697 58.4114L42.822 58.1685C42.8027 57.8388 42.6714 57.5052 42.4515 57.1909L43.892 57.6037C44.1193 57.6688 44.339 57.592 44.3831 57.4336L44.385 57.4342Z" fill="#FFF500"/>
</g>
<path d="M118.181 80.9023H90.5151V83.8485C90.5151 87.463 97.059 90.3973 105.136 90.3973C113.213 90.3973 119.749 87.4669 119.749 83.8485V80.9023H118.185H118.181Z" fill="#CB7319"/>
<path d="M119.749 80.7837V82.6779C119.749 86.2924 113.205 89.2267 105.136 89.2267C97.0668 89.2267 90.5151 86.2963 90.5151 82.6779V80.8983C90.5151 80.5029 90.5934 80.1114 90.7537 79.7278H119.515C119.655 80.0679 119.738 80.4238 119.749 80.7797V80.7837Z" fill="#F89723"/>
<path d="M119.753 80.8984C119.753 80.938 119.753 80.9736 119.749 81.0131C119.62 84.5762 113.119 87.4432 105.136 87.4432C97.1529 87.4432 90.5151 84.5129 90.5151 80.8945C90.5151 80.499 90.5934 80.1075 90.7537 79.7239C91.978 76.667 97.9508 74.3457 105.132 74.3457C112.314 74.3457 118.286 76.667 119.511 79.7239C119.652 80.064 119.734 80.4199 119.745 80.7758C119.749 80.8154 119.749 80.851 119.749 80.8905L119.753 80.8984Z" fill="#FFD524"/>
<path d="M105.132 86.2251C111.697 86.2251 117.019 83.8402 117.019 80.8983C117.019 77.9564 111.697 75.5715 105.132 75.5715C98.5673 75.5715 93.2454 77.9564 93.2454 80.8983C93.2454 83.8402 98.5673 86.2251 105.132 86.2251Z" fill="#FFB02D"/>
<path d="M116.839 81.8197C115.877 84.323 110.999 86.2291 105.132 86.2291C98.5649 86.2291 93.2415 83.8445 93.2415 80.9023C93.2415 80.0877 93.6482 79.3165 94.3797 78.6284C94.2584 78.925 94.1959 79.2335 94.1959 79.5459C94.1959 82.4881 99.5193 84.8727 106.087 84.8727C110.839 84.8727 114.934 83.627 116.839 81.8197Z" fill="#F89723"/>
<path d="M106.478 82.8796V83.9988H104.307V82.8717C102.774 82.7768 101.287 82.4921 100.196 82.0887L101.354 81.0447C102.527 81.4995 104.307 81.8198 105.496 81.8198C106.376 81.8198 106.932 81.6735 106.932 81.4046C106.932 80.5346 100.912 81.0605 100.912 79.2493C100.912 78.4386 102.218 77.8771 104.303 77.7229V76.6472H106.474V77.7149C107.812 77.7822 109.083 77.9839 110.045 78.2646L108.919 79.3245C107.71 79.016 106.177 78.7748 105.23 78.7748C104.514 78.7748 104.041 78.8934 104.041 79.1267C104.041 79.973 110.061 79.4905 110.061 81.3334C110.061 82.2311 108.527 82.757 106.47 82.8836L106.478 82.8796Z" fill="#FFD524"/>
<g style="mix-blend-mode:overlay" opacity="0.2">
<path d="M103.345 77.8573C103.681 78.3753 104.452 78.8222 105.351 79.182C106.92 79.8108 108.926 80.2142 111.015 80.3209C111.66 80.3526 112.321 80.3605 112.947 80.2814C114.833 80.0441 114.973 79.1227 114.211 78.4386C113.252 77.5804 111.453 76.8765 109.548 76.4573C107.976 76.1133 104.831 75.7416 103.603 76.5404C103.043 76.9042 103.079 77.446 103.345 77.8573Z" fill="white"/>
</g>
<path d="M123.117 75.3821H95.4514V78.3282C95.4514 81.9427 101.995 84.877 110.072 84.877C118.15 84.877 124.686 81.9467 124.686 78.3282V75.3821H123.121H123.117Z" fill="#CB7319"/>
<path d="M124.682 75.2634V77.1576C124.682 80.7721 118.138 83.7064 110.069 83.7064C101.999 83.7064 95.4475 80.7761 95.4475 77.1576V75.3781C95.4475 74.9826 95.5257 74.5911 95.6861 74.2075H124.447C124.588 74.5476 124.67 74.9035 124.682 75.2594V75.2634Z" fill="#F89723"/>
<path d="M124.69 75.382C124.69 75.4216 124.69 75.4571 124.686 75.4967C124.557 79.0598 118.056 81.9268 110.072 81.9268C102.089 81.9268 95.4514 78.9965 95.4514 75.382C95.4514 74.9866 95.5296 74.5951 95.69 74.2115C96.9143 71.1546 102.887 68.8333 110.069 68.8333C117.25 68.8333 123.223 71.1546 124.447 74.2115C124.588 74.5516 124.67 74.9075 124.682 75.2634C124.686 75.3029 124.686 75.3385 124.686 75.3781L124.69 75.382Z" fill="#FFD524"/>
<path d="M110.069 80.7088C116.634 80.7088 121.955 78.3239 121.955 75.382C121.955 72.4401 116.634 70.0552 110.069 70.0552C103.504 70.0552 98.1816 72.4401 98.1816 75.382C98.1816 78.3239 103.504 80.7088 110.069 80.7088Z" fill="#FFB02D"/>
<path d="M121.776 76.2995C120.813 78.8027 115.936 80.7088 110.069 80.7088C103.501 80.7088 98.1777 78.3242 98.1777 75.382C98.1777 74.5674 98.5845 73.7962 99.316 73.1082C99.1947 73.4047 99.1321 73.7132 99.1321 74.0256C99.1321 76.9678 104.456 79.3524 111.023 79.3524C115.775 79.3524 119.871 78.1067 121.776 76.2995Z" fill="#F89723"/>
<g style="mix-blend-mode:overlay" opacity="0.2">
<path d="M108.281 72.337C108.618 72.855 109.388 73.3019 110.288 73.6618C111.856 74.2905 113.863 74.6939 115.952 74.8007C116.597 74.8323 117.258 74.8402 117.884 74.7611C119.769 74.5239 119.91 73.6024 119.147 72.9183C118.189 72.0602 116.39 71.3563 114.485 70.9371C112.912 70.593 109.768 70.2213 108.539 71.0201C107.98 71.3839 108.015 71.9257 108.281 72.337Z" fill="white"/>
</g>
<g clip-path="url(#clip5_190_462)">
<path d="M114.57 74.0004C114.648 73.8477 114.541 73.6353 114.331 73.5254L109.379 70.9306C109.169 70.8219 108.935 70.8578 108.858 71.0105C108.78 71.1632 108.887 71.3757 109.097 71.4856L110.44 72.1893C111.204 72.5899 111.694 73.2548 111.716 73.8432L108.703 72.2647C108.493 72.1561 108.259 72.1897 108.181 72.3424C108.103 72.4951 108.21 72.7075 108.42 72.8174L111.54 74.4524C111.138 75.0019 110.143 75.0738 109.223 74.5933L107.878 73.8887C107.668 73.7787 107.435 73.8146 107.357 73.9673L107.356 73.9664C107.278 74.1191 107.385 74.3315 107.595 74.4414L108.42 74.8736L109.667 78.5841C109.71 78.7127 109.82 78.8326 109.964 78.9081C110.336 79.1031 110.708 78.9043 110.596 78.5699L109.551 75.465L112.549 77.0359C112.759 77.1458 112.992 77.1099 113.07 76.9572C113.147 76.8045 113.04 76.5921 112.831 76.4822L111.501 75.7852C112.001 75.669 112.411 75.4165 112.654 75.0342L113.373 75.4109C113.583 75.5209 113.816 75.485 113.893 75.3323C113.971 75.1796 113.864 74.9672 113.654 74.8572L112.871 74.4471C112.924 74.1079 112.866 73.7432 112.718 73.3812L114.048 74.0781C114.258 74.1881 114.491 74.1522 114.568 73.9995L114.57 74.0004Z" fill="#FFF500"/>
</g>
<path d="M104.025 7.83801L103.697 6.84937L103.368 7.83801C102.942 9.11138 102.058 10.1752 100.892 10.8197C102.058 11.4643 102.942 12.5281 103.368 13.8015L103.697 14.7901L104.025 13.8015C104.452 12.5281 105.336 11.4643 106.501 10.8197C105.336 10.1752 104.452 9.11138 104.025 7.83801Z" fill="white"/>
<path d="M18.7202 51.8048L18.3917 50.8162L18.0631 51.8048C17.6368 53.0782 16.7528 54.1419 15.5872 54.7865C16.7528 55.4311 17.6368 56.4949 18.0631 57.7683L18.3917 58.7569L18.7202 57.7683C19.1466 56.4949 20.0306 55.4311 21.1962 54.7865C20.0306 54.1419 19.1466 53.0782 18.7202 51.8048Z" fill="white"/>
<path d="M96.5349 0.743458L96.2884 0L96.042 0.743458C95.7213 1.70046 95.0602 2.49928 94.1841 2.98174C95.0602 3.4642 95.7252 4.26698 96.042 5.22003L96.2884 5.96348L96.5349 5.22003C96.8556 4.26302 97.5166 3.4642 98.3928 2.98174C97.5166 2.49928 96.8517 1.69651 96.5349 0.743458Z" fill="white"/>
<path d="M102.328 58.7964L102.081 58.053L101.835 58.7964C101.514 59.7534 100.853 60.5523 99.9771 61.0347C100.853 61.5172 101.518 62.32 101.835 63.273L102.081 64.0165L102.328 63.273C102.649 62.316 103.31 61.5172 104.186 61.0347C103.31 60.5523 102.645 59.7495 102.328 58.7964Z" fill="white"/>
<path d="M75.374 4.36589L75.1276 3.62244L74.8811 4.36589C74.5604 5.3229 73.8994 6.12172 73.0232 6.60418C73.8994 7.08664 74.5643 7.88941 74.8811 8.84246L75.1276 9.58592L75.374 8.84246C75.6947 7.88546 76.3558 7.08664 77.2319 6.60418C76.3558 6.12172 75.6908 5.31894 75.374 4.36589Z" fill="white"/>
<path d="M22.4167 0.846241L22.1703 0.102783L21.9239 0.846241C21.6031 1.80325 20.9421 2.60207 20.0659 3.08453C20.9421 3.56698 21.607 4.36976 21.9239 5.32281L22.1703 6.06627L22.4167 5.32281C22.7374 4.3658 23.3985 3.56698 24.2746 3.08453C23.3985 2.60207 22.7335 1.79929 22.4167 0.846241Z" fill="white"/>
<path d="M17.1596 8.27694L16.9914 7.77075L16.8232 8.27694C16.6081 8.92549 16.1544 9.47122 15.5598 9.79944C16.1544 10.1277 16.6042 10.6734 16.8232 11.322L16.9914 11.8281L17.1596 11.322C17.3747 10.6734 17.8285 10.1277 18.423 9.79944C17.8285 9.47122 17.3786 8.92549 17.1596 8.27694Z" fill="white"/>
<path d="M13.6159 59.5162L13.4477 59.01L13.2795 59.5162C13.0644 60.1647 12.6107 60.7105 12.0161 61.0387C12.6107 61.3669 13.0605 61.9127 13.2795 62.5612L13.4477 63.0674L13.6159 62.5612C13.831 61.9127 14.2848 61.3669 14.8793 61.0387C14.2848 60.7105 13.8349 60.1647 13.6159 59.5162Z" fill="white"/>
<path d="M104.358 51.1483L104.19 50.6421L104.021 51.1483C103.806 51.7968 103.353 52.3426 102.758 52.6708C103.353 52.999 103.802 53.5447 104.021 54.1933L104.19 54.6995L104.358 54.1933C104.573 53.5447 105.027 52.999 105.621 52.6708C105.027 52.3426 104.577 51.7968 104.358 51.1483Z" fill="white"/>
<path d="M123.659 58.5167C127.95 55.4554 128.973 49.4571 125.945 45.1191C122.918 40.781 116.985 39.746 112.694 42.8073C108.403 45.8686 107.379 51.8669 110.407 56.2049C113.435 60.5429 119.368 61.578 123.659 58.5167Z" fill="#FFD524"/>
<path d="M125.843 51.5785C126.351 47.2913 123.325 43.3996 119.085 42.8861C114.844 42.3726 110.995 45.4318 110.487 49.719C109.979 54.0062 113.005 57.898 117.245 58.4115C121.486 58.925 125.335 55.8658 125.843 51.5785Z" fill="#FFB02D"/>
<path d="M125.479 53.2007C124.286 56.7321 120.715 58.9823 116.949 58.3733C112.732 57.6891 109.857 53.6792 110.534 49.4162C110.722 48.2337 111.16 47.1581 111.789 46.2367C111.645 46.6559 111.531 47.0948 111.461 47.5496C110.784 51.8126 113.659 55.8265 117.876 56.5067C120.926 57.001 123.844 55.6209 125.483 53.2007H125.479Z" fill="#F89723"/>
<g style="mix-blend-mode:overlay" opacity="0.2">
<path d="M117.723 46.0548C117.821 46.8417 118.212 47.5694 118.709 48.1863C119.569 49.2619 120.766 50.0568 122.084 50.4285C122.491 50.5432 122.914 50.6183 123.332 50.5709C124.599 50.4246 124.901 49.1037 124.568 48.0321C124.15 46.6875 123.156 45.4774 122.03 44.6707C121.099 44.0063 119.163 43.1442 118.192 44.1684C117.75 44.639 117.649 45.43 117.723 46.0508V46.0548Z" fill="white"/>
</g>
<g clip-path="url(#clip6_190_462)">
<path d="M120.856 47.3572C120.856 47.1597 120.703 47 120.514 47H116.056C115.867 47.0017 115.714 47.1632 115.714 47.3607C115.714 47.5582 115.867 47.7179 116.056 47.7179H117.265C117.953 47.7179 118.541 48.1352 118.77 48.7243H116.058C115.869 48.726 115.714 48.8858 115.714 49.0833C115.714 49.2808 115.867 49.4405 116.056 49.4405H118.865C118.778 50.2168 118.096 50.8231 117.268 50.8248H116.058C115.869 50.8248 115.716 50.9862 115.716 51.1837H115.714C115.714 51.3812 115.867 51.541 116.056 51.541H116.798L119.026 54.6633C119.103 54.7715 119.225 54.8351 119.354 54.8351C119.689 54.8351 119.882 54.4332 119.681 54.1515L117.817 51.5392H120.516C120.704 51.5392 120.857 51.3778 120.857 51.1803C120.857 50.9828 120.704 50.8231 120.516 50.8231H119.318C119.632 50.4366 119.832 49.9592 119.867 49.4388H120.514C120.703 49.4388 120.856 49.2774 120.856 49.0798C120.856 48.8823 120.703 48.7226 120.514 48.7226H119.809C119.724 48.3482 119.551 48.0064 119.315 47.7162H120.512C120.701 47.7162 120.854 47.5547 120.854 47.3572H120.856Z" fill="#FFF500"/>
</g>
</g>
<defs>
<linearGradient id="paint0_linear_190_462" x1="70.5235" y1="102.83" x2="70.5235" y2="52.2555" gradientUnits="userSpaceOnUse">
<stop stop-color="#3D2A39" stop-opacity="0"/>
<stop offset="0.2" stop-color="#442C40" stop-opacity="0.15"/>
<stop offset="0.58" stop-color="#563454" stop-opacity="0.53"/>
<stop offset="1" stop-color="#6E3E6D"/>
</linearGradient>
<linearGradient id="paint1_linear_190_462" x1="-1.10784" y1="59.6006" x2="48.2526" y2="67.3857" gradientUnits="userSpaceOnUse">
<stop stop-color="#3D2A39"/>
<stop offset="0.31" stop-color="#482E48"/>
<stop offset="0.42" stop-color="#4D3050"/>
<stop offset="0.77" stop-color="#5F3760"/>
<stop offset="1" stop-color="#6E3E6D"/>
</linearGradient>
<linearGradient id="paint2_linear_190_462" x1="100.176" y1="49.2581" x2="135" y2="49.2581" gradientUnits="userSpaceOnUse">
<stop stop-color="#3D2A39"/>
<stop offset="0.31" stop-color="#482E48"/>
<stop offset="0.42" stop-color="#4D3050"/>
<stop offset="0.77" stop-color="#5F3760"/>
<stop offset="1" stop-color="#6E3E6D"/>
</linearGradient>
<linearGradient id="paint3_linear_190_462" x1="71.0431" y1="28.8483" x2="79.2383" y2="73.4082" gradientUnits="userSpaceOnUse">
<stop stop-color="#CB7319"/>
<stop offset="1" stop-color="#9A4F0F"/>
</linearGradient>
<linearGradient id="paint4_linear_190_462" x1="71.774" y1="32.906" x2="73.2849" y2="41.1213" gradientUnits="userSpaceOnUse">
<stop stop-color="#CB7319"/>
<stop offset="1" stop-color="#9A4F0F"/>
</linearGradient>
<clipPath id="clip0_190_462">
<rect width="135" height="94" fill="white"/>
</clipPath>
<clipPath id="clip1_190_462">
<rect width="6.4508" height="10.4093" fill="white" transform="matrix(0.878602 0.477554 -0.46632 0.884616 88.9504 19.9664)"/>
</clipPath>
<clipPath id="clip2_190_462">
<rect width="6.42857" height="10.4444" fill="white" transform="translate(56.5718 13.0555)"/>
</clipPath>
<clipPath id="clip3_190_462">
<rect width="3.85714" height="7.83333" fill="white" transform="translate(30.8574 10.4445)"/>
</clipPath>
<clipPath id="clip4_190_462">
<rect width="6.43594" height="6.52051" fill="white" transform="matrix(0.9613 0.275505 -0.267799 0.963475 38.2798 55.3751)"/>
</clipPath>
<clipPath id="clip5_190_462">
<rect width="6.44956" height="6.79359" fill="white" transform="matrix(0.885761 0.464142 -0.45305 0.891485 109 70.7317)"/>
</clipPath>
<clipPath id="clip6_190_462">
<rect width="5.14286" height="7.83333" fill="white" transform="translate(115.714 47)"/>
</clipPath>
</defs>
</svg>
