<svg width="22" height="21" viewBox="0 0 22 21" fill="none" xmlns="http://www.w3.org/2000/svg">
<path d="M15 11H20C20.5523 11 21 11.4477 21 12V15C21 15.5523 20.5523 16 20 16H15C14.4477 16 14 15.5523 14 15V12C14 11.4477 14.4477 11 15 11Z" stroke="#81B622" stroke-width="1.75"/>
<path d="M1 3.79412V16C1 17.8856 1 18.8284 1.58579 19.4142C2.17157 20 3.11438 20 5 20H19C19.9428 20 20.4142 20 20.7071 19.7071C21 19.4142 21 18.9428 21 18V15.5294V11.0588V8.58824C21 7.64543 21 7.17402 20.7071 6.88113C20.4142 6.58824 19.9428 6.58824 19 6.58824H15.099M1 3.79412C1 5.33727 2.25097 6.58824 3.79412 6.58824H15.099M1 3.79412C1 2.25097 2.25097 1 3.79412 1H19.0906C19.369 1 19.5082 1 19.6147 1.0539C19.7097 1.102 19.7869 1.17917 19.835 1.27418C19.8889 1.38066 19.8889 1.51988 19.8889 1.79832C19.8889 3.46896 19.8889 4.30429 19.5655 4.94315C19.2769 5.51322 18.8139 5.97627 18.2438 6.26484C17.6049 6.58824 16.7696 6.58824 15.099 6.58824" stroke="#81B622" stroke-width="1.75"/>
</svg>
