<svg width="65" height="65" viewBox="0 0 65 65" fill="none" xmlns="http://www.w3.org/2000/svg">
<circle cx="32.5" cy="32.5" r="32.5" fill="#5D93F4"/>
<path d="M36 33H41C41.5523 33 42 33.4477 42 34V37C42 37.5523 41.5523 38 41 38H36C35.4477 38 35 37.5523 35 37V34C35 33.4477 35.4477 33 36 33Z" stroke="white" stroke-width="2"/>
<path d="M22 25.7941V38C22 39.8856 22 40.8284 22.5858 41.4142C23.1716 42 24.1144 42 26 42H40C40.9428 42 41.4142 42 41.7071 41.7071C42 41.4142 42 40.9428 42 40V37.5294V33.0588V30.5882C42 29.6454 42 29.174 41.7071 28.8811C41.4142 28.5882 40.9428 28.5882 40 28.5882H36.099M22 25.7941C22 27.3373 23.251 28.5882 24.7941 28.5882H36.099M22 25.7941C22 24.251 23.251 23 24.7941 23H40.0906C40.369 23 40.5082 23 40.6147 23.0539C40.7097 23.102 40.7869 23.1792 40.835 23.2742C40.8889 23.3807 40.8889 23.5199 40.8889 23.7983C40.8889 25.469 40.8889 26.3043 40.5655 26.9431C40.2769 27.5132 39.8139 27.9763 39.2438 28.2648C38.6049 28.5882 37.7696 28.5882 36.099 28.5882" stroke="white" stroke-width="2"/>
</svg>
