<svg width="25" height="24" viewBox="0 0 25 24" fill="none" xmlns="http://www.w3.org/2000/svg">
<path d="M2 12.5H8" stroke="#81B622" stroke-width="1.75" stroke-linecap="round" stroke-linejoin="round"/>
<path d="M17 12.5H23" stroke="#81B622" stroke-width="1.75" stroke-linecap="round" stroke-linejoin="round"/>
<path d="M9 12.5H16" stroke="#81B622" stroke-width="1.75" stroke-linecap="round" stroke-linejoin="round"/>
<path d="M12.5 23C18.5751 23 23.5 18.0751 23.5 12C23.5 5.92487 18.5751 1 12.5 1C6.42487 1 1.5 5.92487 1.5 12C1.5 18.0751 6.42487 23 12.5 23Z" stroke="#6B7186" stroke-width="1.75" stroke-linecap="round" stroke-linejoin="round"/>
<path d="M12.5001 1C15.2515 4.01219 16.8151 7.92124 16.9001 12C16.8151 16.0788 15.2515 19.9878 12.5001 23C9.74869 19.9878 8.18507 16.0788 8.1001 12C8.18507 7.92124 9.74869 4.01219 12.5001 1Z" stroke="#6B7186" stroke-width="1.75" stroke-linecap="round" stroke-linejoin="round"/>
</svg>
